<?xml version="1.0" encoding="UTF-8"?><svg id="Layer_1" xmlns="http://www.w3.org/2000/svg" viewBox="0 0 733.33 733.33"><defs><style>.cls-1,.cls-2{fill:#e5e5e5;stroke-width:0px;}.cls-2{fill-rule:evenodd;}</style></defs><path class="cls-1" d="m333.33,233.33c0-18.41,14.92-33.33,33.33-33.33s33.33,14.92,33.33,33.33v100h100c18.41,0,33.33,14.92,33.33,33.33s-14.92,33.33-33.33,33.33h-100v100c0,18.41-14.92,33.33-33.33,33.33s-33.33-14.92-33.33-33.33v-100h-100c-18.41,0-33.33-14.92-33.33-33.33s14.92-33.33,33.33-33.33h100v-100Z"/><path class="cls-2" d="m733.33,366.67c0,202.5-164.16,366.67-366.67,366.67S0,569.17,0,366.67,164.16,0,366.67,0s366.67,164.16,366.67,366.67Zm-666.44,0c0,165.56,134.21,299.77,299.77,299.77s299.77-134.21,299.77-299.77S532.23,66.89,366.67,66.89,66.89,201.11,66.89,366.67Z"/></svg>