<?xml version="1.0" encoding="UTF-8"?><svg id="Layer_1" xmlns="http://www.w3.org/2000/svg" viewBox="0 0 800 800"><defs><style>.cls-1{fill:#a3a3a3;}.cls-1,.cls-2{stroke-width:0px;}.cls-2{fill:none;}</style></defs><path class="cls-1" d="m533.33,200l100,133.33h66.67c37,0,66.67,29.67,66.67,66.67v100h-66.67c0,55.33-44.67,100-100,100s-100-44.67-100-100h-200c0,55.33-44.67,100-100,100s-100-44.67-100-100H33.33v-100c0-37,29.67-66.67,66.67-66.67l100-133.33h333.33m-183.33,50h-125l-63,83.33h188v-83.33m50,0v83.33h171.33l-63-83.33h-108.33m-200,200c-27.67,0-50,22.33-50,50s22.33,50,50,50,50-22.33,50-50-22.33-50-50-50m400,0c-27.67,0-50,22.33-50,50s22.33,50,50,50,50-22.33,50-50-22.33-50-50-50Z"/><rect class="cls-2" width="800" height="800"/></svg>