<?xml version="1.0" encoding="utf-8"?>
<!-- Generator: Adobe Illustrator 27.9.0, SVG Export Plug-In . SVG Version: 6.00 Build 0)  -->
<svg version="1.1" id="Layer_1" xmlns="http://www.w3.org/2000/svg" xmlns:xlink="http://www.w3.org/1999/xlink" x="0px" y="0px"
	 viewBox="0 0 801 800.2" style="enable-background:new 0 0 801 800.2;" xml:space="preserve">
<style type="text/css">
	.st0{fill:#E5E5E5;}
</style>
<path class="st0" d="M134,0.2c-27.6,4.4-46.4,30.4-42,58s30.4,46.4,58,42h50v141c-9,17-120,231-166,309c-16,26-34,61-34,106
	c0,39,15,77,41,103s64,41,103,41h513c38,0,74-16,100-41h3c26-26,41-64,41-103c0-45-19-80-34-106c-46-78-157-292-166-309v-141h50
	c27.6,0,50-22.4,50-50s-22.4-50-50-50H151c-3-0.3-6-0.3-9,0c-2-0.1-4-0.1-6,0H134z M300,100.2h200v163l6,9c0,0,63,123,119,228H175
	c56-105,119-228,119-228l6-9V100.2L300,100.2z"/>
</svg>
