<?xml version="1.0" encoding="UTF-8"?><svg id="Layer_1" xmlns="http://www.w3.org/2000/svg" viewBox="0 0 801 800.2"><defs><style>.cls-1{fill:#fff;stroke-width:0px;}</style></defs><path class="cls-1" d="m134,.2c-27.61,4.42-46.42,30.39-42,58,4.42,27.61,30.39,46.42,58,42h50v141c-9,17-120,231-166,309-16,26-34,61-34,106,0,39,15,77,41,103s64,41,103,41h513c38,0,74-16,100-41h3c26-26,41-64,41-103,0-45-19-80-34-106-46-78-157-292-166-309V100.2h50c27.61,0,50-22.39,50-50S678.61.2,651,.2H151c-2.99-.27-6.01-.27-9,0-2-.12-4-.12-6,0h-2Zm166,100h200v163l6,9s63,123,119,228H175c56-105,119-228,119-228l6-9V100.2h0Z"/></svg>