<?xml version="1.0" encoding="UTF-8"?><svg id="Layer_1" xmlns="http://www.w3.org/2000/svg" viewBox="0 0 700 800"><defs><style>.cls-1{fill:#737373;stroke-width:0px;}</style></defs><path class="cls-1" d="m350,800c55.19,0,99.95-44.77,99.95-100h-199.91c0,55.23,44.77,100,99.95,100Zm336.55-233.92c-30.19-32.44-86.67-81.23-86.67-241.08,0-121.41-85.13-218.59-199.91-242.44v-32.56c0-27.61-22.38-50-49.97-50s-49.97,22.39-49.97,50v32.56c-114.78,23.84-199.91,121.03-199.91,242.44,0,159.84-56.48,208.64-86.67,241.08C4.08,576.16-.08,588.2,0,600c.17,25.62,20.28,50,50.16,50h599.69c29.87,0,50-24.38,50.16-50,.08-11.8-4.08-23.86-13.45-33.92Z"/></svg>