<?xml version="1.0" encoding="UTF-8"?><svg id="Layer_1" xmlns="http://www.w3.org/2000/svg" viewBox="0 0 733.33 665.82"><defs><style>.cls-1{fill:#fff;stroke-width:0px;}</style></defs><path class="cls-1" d="m302.1,659.72c10.88,11.89,31.23,5.39,31.23-10.73V66.67c-33.33-33.33-69.58-47.62-107.21-55.92C159.44-3.96,100.08-.77,63.76,3.96,23.51,9.2,0,44.98,0,80.19v438.69c0,47.44,39.61,84.84,85.6,83.33,38.07-1.25,90.9.09,138.77,11.66,36.5,8.82,59.71,26.17,77.73,45.86Z"/><path class="cls-1" d="m431.23,659.72c-10.88,11.89-31.23,5.39-31.23-10.73V66.67c33.33-33.33,69.58-47.62,107.21-55.92,66.68-14.71,126.04-11.52,162.36-6.79,40.24,5.24,63.76,41.02,63.76,76.23v438.69c0,47.44-39.61,84.84-85.6,83.33-38.07-1.25-90.9.09-138.76,11.66-36.5,8.82-59.71,26.17-77.73,45.86Z"/></svg>