<?xml version="1.0" encoding="utf-8"?>
<!-- Generator: Adobe Illustrator 27.9.0, SVG Export Plug-In . SVG Version: 6.00 Build 0)  -->
<svg version="1.1" id="Layer_1" xmlns="http://www.w3.org/2000/svg" xmlns:xlink="http://www.w3.org/1999/xlink" x="0px" y="0px"
	 viewBox="0 0 1200 800" style="enable-background:new 0 0 1200 800;" xml:space="preserve">
<style type="text/css">
	.st0{fill:#FFFFFF;}
</style>
<g>
	<path class="st0" d="M796,445.3c0-12.4-10.5-13.3-13.3-13.3h-4.7c-1,0-1,1.9-1,4.7c0,0,0,21.9-0.1,21.9h3.8
		C790.3,458.7,796,453.9,796,445.3z"/>
	<path class="st0" d="M713.1,444.4c0,0-8.6,22.9-7.6,22.9h16.2C720.7,467.3,713.1,444.4,713.1,444.4z"/>
	<path class="st0" d="M543.2,387.1c15.3,0,38.2-41,38.2-49.6c0-5.7-2.9-8.6-8.6-8.6c-17.2,0-34.3,29.6-34.3,51.5
		C538.5,387.1,540.4,388.1,543.2,387.1z"/>
	<path class="st0" d="M753.1,334.6c0-3.8-2.8-6.7-6.7-6.7c-8.6,0-19.1,14.3-22,21C742.6,348.9,753.1,344.2,753.1,334.6z"/>
	<path class="st0" d="M780.8,461.5c0,0-2.9,0-2.8,0.9v19.1c0,5.8,0,8.6,1.9,10.5c1,1,2.8,1,5.7,1c6.7,0,14.3-4.7,14.3-15.3
		C799.9,467.3,793.2,461.5,780.8,461.5z"/>
	<path class="st0" d="M333.3,133.3v533.3h533.3V133.3H333.3z M747.4,321.2c9.5,0,15.3,6.7,15.3,12.4c0,14.3-22.9,20.1-35.3,20.1
		h-7.6v1c-2.9,5.7-7.6,12.4-7.6,21.9c0,7.7,4.8,12.4,12.4,12.4c6.7,0,14.3-5.7,19.1-9.5l1.9-1h1l1.9,2.9v1
		c-3.8,3.8-18.1,17.2-31.5,17.2c-11.5,0-19.1-8.6-19.1-21C697.8,351.8,728.3,323.2,747.4,321.2z M689.2,287.8h-4.7v-4.7c0-1,1-1,1-1
		h21.9c1.9,0,2.9,0,2.9,1v1c0,1-2.9,7.6-7.6,20.1l-9.5,24.8c-13.4,34.3-20.1,53.4-20.1,57.2c0,1,1,1.9,1,1.9h1
		c3.8,0,6.7-4.8,13.3-11.5l1-1c0,0,2.9,2.9,2.9,3.8l0,0v0v0c0,0-1,1.9-1,1.9c-5.7,7.6-15.3,19.1-23.8,19.1c-2.8,0-4.7-1-6.7-2.9
		c-1-1-1.9-3.8-1.9-7.6c0-7.6,13.4-41,21-60.1c0,0,14.3-35.3,14.3-38.2C693.9,289.8,692.1,288.8,689.2,287.8z M631,323.2
		c3.8,0,5.7,1.9,5.7,5.7c0,2.9-1.9,12.4-3.8,20.1c-1,3.8-1.9,6.7-1.9,7.6v1c0,0,1-1,1-1.9c11.5-23.8,20.1-32.4,33.6-33.4
		c2.8,0,6.7,1.9,6.7,6.7c0,2.8-1,4.7-2.9,6.7c-1,1-2.9,1-3.8,1c-1.9,0-2.9-1.9-3.8-2.9c-1-1-1-1.9-2.9-1.9s-4.7,0.9-8.6,4.7
		c-5.7,5.8-12.4,19.1-25.8,45.8c-1.9,3.8-4.7,11.5-4.7,11.5c-1,1.9-1.9,2.9-2.9,2.9h-6.7c-1,0-1.9,0-1.9-1.9c0-1,1.9-6.7,4.7-14.3
		c4.8-14.3,12.4-35.3,12.4-42c0-2.8-1-4.7-2.9-4.7c-2.9,0-8.6,6.7-11.5,10.5l-1,1l-1,1l-1.9-2.9C611,336.5,623.4,323.2,631,323.2z
		 M575.6,323.2c2.8,0,4.7,1,6.7,1c1.9,1,2.9,1,3.8,1c1.9,0,1.9-1,2.9-1.9c0-1,1-1.9,1.9-1.9v0c0,0,1,0-1,0.9l4.7,2.9
		c1,0,1,1.9,1,1.9c0,1.9-3.8,11.4-7.6,21.9c-4.8,14.3-12.4,32.4-12.4,36.3v1.9h1c2.9,0,6.7-5.7,10.5-9.5l2.9-2.9h1l2.9,2.9
		c-3.8,5.8-13.3,21-24.8,21c-1.9,0-3.8-1-4.7-1.9s-1.9-2.8-1.9-5.7c0-5.7,2.8-12.4,4.7-15.3l1-1.9v-1l-2.9,4.7
		c-12.4,19.1-22,21-28.6,21c-5.8,0-11.5-4.7-11.5-15.3C525.1,368.1,542.2,323.2,575.6,323.2z M475.5,286h-4.7v-1l1-3.8l-0.2,2h21
		c1,0,2.9,0,2.9,1.9s-4.7,16.2-15.3,44.9c-2.8,7.6-4.7,13.3-6.7,17.2c-1,3.8-1.9,5.7-1.9,5.7s1.9-1.9,2.9-3.8
		c5.7-8.6,17.2-24.8,31.5-24.8c7.6,0,11.5,4.7,11.5,13.3c0,10.5-7.7,28.6-12.4,39.1c-1.9,3.8-2.9,6.7-2.9,7.6v1.9h1
		c1.9,0,8.6-6.7,12.4-10.5h1l2.9,2.9l-1,1c-6.7,8.6-16.2,19.1-27.7,19.1c-3.8,0-5.7-1.9-5.7-5.7c0-4.7,3.8-14.3,8.6-23.8
		c5.8-11.5,10.5-22.9,10.5-28.6c0-3.8-0.9-4.7-4.7-4.7c-11.5,0-34.3,31.5-42.9,59.1c-1,1.9-2.9,2.9-7.6,2.9c-4.7,0-5.7-1-5.7-2.9
		c0-1.9,4.8-14.3,10.5-29.6c4.7-12.4,10.5-27.7,14.3-38.2l3.8-12.4c4.7-13.3,8.6-22.9,8.6-25.8C480.2,287,479.3,287,475.5,286z
		 M406.8,499.8c-3.8,0-7.6-1-10.5-1.9l-4.7-1.9h-1.9c0-2.9-1.9-10.5-2.9-17.2l3.8-1c2.9,6.7,8.6,17.2,19.1,17.2
		c6.7,0,11.5-5.8,11.5-12.4c0-5.7-3.8-10.5-11.5-14.3l-3.8-1.9c-7.6-3.8-16.2-9.5-16.2-20.1v0c0-12.4,9.5-21,22.8-21.9
		c2.9,0,6.7,1,9.5,1.9l1.9,1l2.9,1c0,3.8,1,8.6,1.9,14.3l-3.8,1c-1.9-6.7-5.7-13.3-14.3-13.3c-6.7,0-10.5,5.8-10.5,11.5
		s3.8,9.5,12.4,14.3l2.9,1c6.7,2.9,16.2,8.6,16.2,21C431.6,491.2,421.1,499.8,406.8,499.8z M409.7,397.5c-15.3,0-21-11.4-21-21.9
		c-1-12.4,4.7-25.8,15.3-36.3c11.5-11.5,26.7-18.1,38.2-18.1c10.5,1,15.3,7.7,15.3,12.4c0,1-1,2.9-1.9,3.8c0,1-1.9,1.9-2.9,1.9
		c-2.8,0-4.7-1.9-6.7-4.7c-2.9-2.8-5.7-5.7-9.5-5.7c-2.8,0-7.6,2.9-13.3,8.6c-9.5,10.5-20.1,28.6-19.1,40.1c0,4.8,1,8.6,3.8,10.5
		c1.9,1.9,4.7,2.9,7.6,2.9c7.7,0,16.3-7.6,21-11.5c0,0,2.9,1.9,2.9,2.9C437.3,386.2,424.9,399.5,409.7,397.5z M500.3,495.9
		c-3.8,1-13.4,2.9-20.1,2.9c-27.6,0-40.1-17.2-40.1-35.3c0-22.9,17.2-38.2,41-36.3c7.6,0,13.3,1,17.2,1.9h1.9l1.9,12.4l1,4.7h-3.8
		c-2.9-11.5-8.6-16.2-20.1-16.2c-19.1,0-25.8,16.2-25.8,30.5c0,20.1,10.5,33.4,25.8,33.4c12.4,0,17.2-5.7,22.9-17.2l3.8,1
		C505.1,482.6,502.2,491.1,500.3,495.9z M585.2,431c-8.6,0.9-9.5,1.9-9.5,13.3v38.2c0,12.4,1,12.4,9.5,13.3v3.8h-31.5v-3.8
		c8.6-0.9,9.5-1.9,9.5-13.3v-18.1h-32.4v18.1c0,12.4,1.9,12.4,9.5,13.3v3.8H509v-3.8c8.6-0.9,9.5-1.9,9.5-13.3v-38.2
		c0-11.4,0-12.4-9.5-13.3v-3.8h31.5v3.8c-7.6,0.9-8.6,1.9-8.6,13.3v14.3h32.4v-14.3c0-12.4-1-12.4-8.6-13.3v-3.8h30.5
		C586.2,427.2,585.2,431,585.2,431z M659.6,499.7c0,0-17.2-48.6-18.1-50.6c-1,1-17.2,50.6-17.2,50.6h-4.7l-18.1-57.2
		c-2.9-9.5-4.8-9.5-10.5-10.5v-3.8h29.7v2.9h-3.8c-1.9,0-2.9,0-3.8,1v1.9c0,1,1,1.9,1,3.8c0,0,11.5,40.1,12.4,42
		c0-1,16.2-51.5,16.2-51.5h4.7c0,0,18.1,48.6,19.1,50.6c4.8-15.3,10.5-39.1,10.5-40.1c1-1.9,1-3.8,1-4.7s-1-1-1-1.9
		c-1,0-1.9-1-3.8-1h-3.8v-3.8H694h0v4.7c-6.7,0-7.6,1-11.5,10.5c0,1-8.6,23.8-18.1,57.2H659.6z M754.1,496.8h-28.6v-2.9l2.9-1
		c1.9,0,2.9,0,2.9-1v-1c0-1-1-1.9-1-2.9c-1-2.8-3.8-9.5-5.7-15.3h-20.1c-1,1.9-2.9,7.6-3.8,11.5l-1,1.9c-1,1.9-1,2.9-1,3.8v1.9
		c0,1,1.9,1.9,3.8,1.9h2.9v3.8h-24.8V494c6.7,0,7.6-1,11.5-10.5l21.9-56.3l4.7-1l7.6,20.1l16.2,36.2c3.8,9.5,5.8,9.5,11.5,10.5
		V496.8z M753,391.9c0-2.9,1-8.6,3.8-8.6c1.9,0,3.8,1.9,5.7,3.8c3.8,2.8,6.7,5.7,12.4,5.7c4.8,0,10.5-3.8,10.5-9.5
		c0-3.8-2.8-7.6-5.7-11.5c-3.8-4.8-8.6-10.5-8.6-18.1c0-13.3,13.4-30.5,28.6-30.5c6.7,0,10.5,3.8,10.5,7.6c0,2.8-2.8,6.7-6.7,6.7
		c-1.9,0-4.7-1-6.7-1.9c-1.9-1-3.8-1.9-6.7-1.9c-4.7,0-8.6,3.8-8.6,9.5c0,4.8,2.8,8.6,6.7,12.4c3.8,5.8,8.6,11.5,8.6,19.1l0,0
		c0,13.3-15.3,24.8-28.7,26.7C759.7,401.4,753,395.7,753,391.9z M803.7,495c-4.8,2.8-12.4,4.7-21,4.7H756v-3.8
		c8.6-0.9,9.5-1.9,9.5-13.3v-38.2c0-12.4-1-12.4-8.6-13.3v-1.9h0l0-1.9v1.9h29.6c8.6,0,13.3,1,17.2,3.8c3.8,2.9,5.7,6.7,5.7,12.4
		c0,9.5-9.5,14.3-15.3,15.3c12.4,1.9,19.1,8.6,19.1,18.1C813.3,485.4,810.4,491.1,803.7,495z"/>
</g>
</svg>
