<?xml version="1.0" encoding="utf-8"?>
<!-- Generator: Adobe Illustrator 27.9.0, SVG Export Plug-In . SVG Version: 6.00 Build 0)  -->
<svg version="1.1" id="Layer_1" xmlns="http://www.w3.org/2000/svg" xmlns:xlink="http://www.w3.org/1999/xlink" x="0px" y="0px"
	 viewBox="0 0 800 800" style="enable-background:new 0 0 800 800;" xml:space="preserve">
<style type="text/css">
	.st0{fill:#262626;}
</style>
<path class="st0" d="M152.5,152.5c19.5-19.5,51.2-19.5,70.7,0L400,329.3l176.8-176.8c19.9-19.2,51.5-18.6,70.7,1.2
	c18.7,19.4,18.7,50.1,0,69.5L470.7,400l176.8,176.8c19.2,19.9,18.6,51.5-1.2,70.7c-19.4,18.7-50.1,18.7-69.5,0L400,470.7
	L223.2,647.5c-19.9,19.2-51.5,18.6-70.7-1.2c-18.7-19.4-18.7-50.1,0-69.5L329.3,400L152.5,223.2C133,203.7,133,172,152.5,152.5
	L152.5,152.5z"/>
</svg>
