<?xml version="1.0" encoding="UTF-8"?><svg id="Layer_1" xmlns="http://www.w3.org/2000/svg" viewBox="0 0 816 682.67"><defs><style>.cls-1{fill:#fff;stroke:#fff;stroke-miterlimit:10;stroke-width:16px;}</style></defs><path class="cls-1" d="m474.67,8h-133.33C157.22,8,8,157.22,8,341.33s149.22,333.33,333.33,333.33h133.33c184.11,0,333.33-149.22,333.33-333.33S658.78,8,474.67,8Zm-216.55,586.76c-106.53-34.95-183.45-135.2-183.45-253.43s76.92-218.47,183.45-253.43c-.25.21-.49.43-.74.65-1.34,1.15-2.66,2.32-3.98,3.5-.78.69-1.57,1.38-2.34,2.08-1.53,1.39-3.04,2.8-4.55,4.21-.54.51-1.1,1.01-1.64,1.52-2.03,1.94-4.04,3.9-6.03,5.88-.45.45-.89.92-1.34,1.37-1.53,1.55-3.05,3.1-4.54,4.67-.7.74-1.39,1.5-2.09,2.25-1.22,1.31-2.44,2.62-3.63,3.94-.76.85-1.51,1.7-2.27,2.56-1.11,1.26-2.22,2.52-3.31,3.79-.77.9-1.53,1.81-2.3,2.72-1.05,1.25-2.1,2.51-3.13,3.77-.76.94-1.52,1.88-2.27,2.82-1.01,1.27-2.01,2.54-3,3.82-.74.95-1.48,1.91-2.2,2.87-.99,1.3-1.96,2.62-2.93,3.94-.7.96-1.41,1.92-2.1,2.88-.98,1.37-1.94,2.74-2.9,4.12-.65.94-1.31,1.87-1.95,2.82-1.01,1.49-2,2.99-2.99,4.5-.56.85-1.13,1.7-1.68,2.56-1.2,1.86-2.37,3.75-3.53,5.63-.32.52-.65,1.03-.97,1.55-1.47,2.41-2.9,4.85-4.31,7.3-.38.67-.75,1.35-1.13,2.03-1.01,1.79-2.02,3.59-3,5.4-.5.93-.99,1.88-1.49,2.82-.83,1.57-1.66,3.14-2.46,4.73-.52,1.04-1.04,2.08-1.55,3.12-.75,1.51-1.49,3.02-2.21,4.54-.52,1.09-1.02,2.18-1.53,3.28-.69,1.5-1.38,3-2.05,4.5-.5,1.12-.99,2.24-1.47,3.37-.65,1.51-1.29,3.02-1.92,4.54-.47,1.13-.93,2.27-1.39,3.4-.62,1.54-1.22,3.1-1.82,4.65-.43,1.13-.86,2.25-1.28,3.38-.6,1.61-1.17,3.24-1.75,4.86-.38,1.08-.77,2.16-1.15,3.25-.6,1.77-1.18,3.55-1.75,5.33-.31.96-.63,1.91-.93,2.87-.74,2.37-1.45,4.76-2.14,7.15-.11.38-.23.75-.34,1.13-.79,2.78-1.54,5.57-2.26,8.38-.22.86-.42,1.72-.63,2.58-.48,1.96-.97,3.92-1.42,5.89-.25,1.09-.48,2.2-.72,3.29-.38,1.75-.76,3.5-1.11,5.26-.24,1.19-.46,2.38-.68,3.57-.32,1.69-.63,3.38-.93,5.08-.21,1.23-.41,2.47-.61,3.71-.27,1.67-.53,3.35-.78,5.03-.18,1.26-.36,2.52-.53,3.78-.23,1.69-.44,3.38-.64,5.07-.15,1.26-.3,2.51-.43,3.77-.18,1.73-.35,3.46-.51,5.19-.11,1.24-.23,2.47-.33,3.71-.15,1.8-.26,3.62-.38,5.43-.07,1.17-.16,2.35-.22,3.53-.11,2.01-.18,4.03-.25,6.04-.03.99-.09,1.97-.11,2.96-.08,3.01-.13,6.04-.13,9.07s.05,6.05.13,9.07c.03.99.08,1.98.11,2.96.07,2.02.15,4.03.25,6.04.06,1.18.15,2.35.22,3.53.12,1.81.23,3.62.38,5.43.1,1.24.22,2.48.33,3.71.16,1.73.32,3.46.51,5.19.13,1.26.28,2.52.43,3.77.2,1.7.41,3.39.64,5.07.17,1.26.35,2.52.53,3.78.25,1.68.51,3.35.78,5.03.2,1.24.4,2.48.61,3.71.29,1.7.61,3.39.93,5.08.22,1.19.45,2.38.68,3.57.35,1.76.73,3.51,1.11,5.26.24,1.1.47,2.2.72,3.29.45,1.97.93,3.93,1.42,5.89.21.86.41,1.72.63,2.58.72,2.81,1.47,5.6,2.26,8.38.11.38.23.75.34,1.13.69,2.39,1.4,4.78,2.14,7.15.3.96.62,1.91.93,2.87.57,1.78,1.15,3.56,1.75,5.33.37,1.09.76,2.17,1.15,3.25.57,1.63,1.15,3.25,1.75,4.86.42,1.13.85,2.25,1.29,3.38.6,1.55,1.2,3.1,1.82,4.65.46,1.14.92,2.27,1.39,3.41.63,1.52,1.27,3.03,1.92,4.54.49,1.13.98,2.25,1.47,3.37.67,1.51,1.35,3.01,2.05,4.5.51,1.1,1.01,2.19,1.53,3.28.72,1.52,1.46,3.03,2.21,4.53.52,1.04,1.03,2.09,1.55,3.12.8,1.58,1.63,3.16,2.46,4.72.5.94.98,1.88,1.49,2.82.98,1.81,1.98,3.6,2.99,5.39.38.68.75,1.36,1.14,2.04,1.41,2.45,2.84,4.88,4.31,7.3.32.52.65,1.03.97,1.55,1.16,1.89,2.33,3.77,3.53,5.63.55.86,1.13,1.71,1.69,2.56.99,1.5,1.98,3.01,2.99,4.49.64.95,1.3,1.88,1.95,2.82.96,1.38,1.92,2.76,2.9,4.12.7.97,1.4,1.93,2.1,2.89.97,1.32,1.94,2.63,2.93,3.93.73.96,1.47,1.92,2.21,2.88.99,1.28,1.99,2.55,3,3.82.75.95,1.51,1.89,2.27,2.83,1.03,1.27,2.08,2.52,3.13,3.77.76.91,1.53,1.82,2.3,2.72,1.09,1.27,2.2,2.53,3.31,3.78.76.85,1.51,1.71,2.27,2.56,1.2,1.32,2.41,2.63,3.63,3.94.7.75,1.39,1.51,2.1,2.25,1.49,1.57,3,3.11,4.52,4.65.46.46.9.93,1.36,1.39,1.98,1.99,3.99,3.95,6.03,5.88.54.52,1.1,1.02,1.64,1.53,1.5,1.41,3.01,2.82,4.54,4.2.78.7,1.57,1.39,2.36,2.09,1.32,1.17,2.64,2.34,3.97,3.49.25.21.49.43.74.64Zm216.55,13.24c-147.29,0-266.67-119.38-266.67-266.67S327.38,74.67,474.67,74.67s266.67,119.38,266.67,266.67-119.37,266.67-266.67,266.67Z"/></svg>