<?xml version="1.0" encoding="UTF-8"?><svg id="Layer_1" xmlns="http://www.w3.org/2000/svg" viewBox="0 0 666.67 566.67"><defs><style>.cls-1{fill:#d4d4d4;fill-rule:evenodd;stroke-width:0px;}</style></defs><path class="cls-1" d="m66.67,100c0-18.41,14.92-33.33,33.33-33.33h466.67c18.41,0,33.33,14.92,33.33,33.33v33.33H66.67v-33.33Zm0,366.67v-233.33h533.33v233.33c0,18.41-14.92,33.33-33.33,33.33H100c-18.41,0-33.33-14.92-33.33-33.33ZM100,0C44.77,0,0,44.77,0,100v366.67c0,55.23,44.77,100,100,100h466.67c55.23,0,100-44.77,100-100V100c0-55.23-44.77-100-100-100H100Zm300,333.33c-18.41,0-33.33,14.92-33.33,33.33s14.92,33.33,33.33,33.33h133.33c18.41,0,33.33-14.92,33.33-33.33s-14.92-33.33-33.33-33.33h-133.33Z"/></svg>