<?xml version="1.0" encoding="UTF-8"?><svg id="Layer_1" xmlns="http://www.w3.org/2000/svg" viewBox="0 0 496 528.04"><defs><style>.cls-1{fill:none;stroke:#ee8585;stroke-linecap:round;stroke-linejoin:round;stroke-width:48px;}</style></defs><path class="cls-1" d="m165.4,216.02h-90.8c-13.3-.1-26.1,5.1-35.6,14.4-9.5,9.3-14.9,22.1-15,35.4v188.4c.2,27.7,22.9,50,50.6,49.8h90.8c13.3.1,26.1-5.1,35.6-14.4,9.5-9.3,14.9-22.1,15-35.4v-188.4c-.1-13.3-5.5-26-15-35.4-9.5-9.3-22.3-14.5-35.6-14.4Z"/><path class="cls-1" d="m165.4,24.02h-90.8c-27.2-.8-49.8,20.6-50.6,47.8v32.4c.8,27.2,23.5,48.5,50.6,47.8h90.8c27.2.8,49.8-20.6,50.6-47.8v-32.4c-.8-27.2-23.5-48.5-50.6-47.8Z"/><path class="cls-1" d="m330.6,312.02h90.7c13.3.1,26.1-5.1,35.6-14.4s14.9-22.1,15-35.4V73.82c-.1-13.3-5.5-26-15-35.4-9.5-9.3-22.3-14.5-35.6-14.4h-90.8c-13.3-.1-26.1,5.1-35.6,14.4-9.5,9.3-14.9,22.1-15,35.4v188.4c.1,13.3,5.5,26,15,35.4,9.6,9.3,22.4,14.5,35.7,14.4Z"/><path class="cls-1" d="m330.6,504.02h90.7c27.2.8,49.8-20.6,50.7-47.8v-32.4c-.8-27.2-23.5-48.5-50.6-47.8h-90.8c-27.2-.8-49.8,20.6-50.6,47.8v32.4c.8,27.2,23.5,48.6,50.6,47.8Z"/></svg>