<?xml version="1.0" encoding="utf-8"?>
<!-- Generator: Adobe Illustrator 27.9.0, SVG Export Plug-In . SVG Version: 6.00 Build 0)  -->
<svg version="1.1" id="Layer_1" xmlns="http://www.w3.org/2000/svg" xmlns:xlink="http://www.w3.org/1999/xlink" x="0px" y="0px"
	 viewBox="0 0 800 800" style="enable-background:new 0 0 800 800;" xml:space="preserve">
<style type="text/css">
	.st0{fill:none;stroke:#838383;stroke-width:48;stroke-linecap:round;stroke-linejoin:round;stroke-miterlimit:128;}
</style>
<path class="st0" d="M317.4,336h-90.8c-13.3-0.1-26.1,5.1-35.6,14.4c-9.5,9.3-14.9,22.1-15,35.4v188.4c0.2,27.7,22.9,50,50.6,49.8
	h90.8c13.3,0.1,26.1-5.1,35.6-14.4c9.5-9.3,14.9-22.1,15-35.4V385.8c-0.1-13.3-5.5-26-15-35.4C343.5,341.1,330.7,335.9,317.4,336z"
	/>
<path class="st0" d="M317.4,144h-90.8c-27.2-0.8-49.8,20.6-50.6,47.8v32.4c0.8,27.2,23.5,48.5,50.6,47.8h90.8
	c27.2,0.8,49.8-20.6,50.6-47.8v-32.4C367.2,164.6,344.5,143.3,317.4,144z"/>
<path class="st0" d="M482.6,432h90.7c13.3,0.1,26.1-5.1,35.6-14.4c9.5-9.3,14.9-22.1,15-35.4V193.8c-0.1-13.3-5.5-26-15-35.4
	c-9.5-9.3-22.3-14.5-35.6-14.4h-90.8c-13.3-0.1-26.1,5.1-35.6,14.4c-9.5,9.3-14.9,22.1-15,35.4v188.4c0.1,13.3,5.5,26,15,35.4
	C456.5,426.9,469.3,432.1,482.6,432z"/>
<path class="st0" d="M482.6,624h90.7c27.2,0.8,49.8-20.6,50.7-47.8v-32.4c-0.8-27.2-23.5-48.5-50.6-47.8h-90.8
	c-27.2-0.8-49.8,20.6-50.6,47.8v32.4C432.8,603.4,455.5,624.8,482.6,624z"/>
</svg>
