<?xml version="1.0" encoding="utf-8"?>
<!-- Generator: Adobe Illustrator 27.9.0, SVG Export Plug-In . SVG Version: 6.00 Build 0)  -->
<svg version="1.1" id="Layer_1" xmlns="http://www.w3.org/2000/svg" xmlns:xlink="http://www.w3.org/1999/xlink" x="0px" y="0px"
	 viewBox="0 0 800 800" style="enable-background:new 0 0 800 800;" xml:space="preserve">
<style type="text/css">
	.st0{fill:#FFFFFF;}
</style>
<path class="st0" d="M619.7,196.3c-41-19-84.7-33-130.7-41c-5.7,10-12.3,23.7-16.7,34.7c-48.7-7.3-97-7.3-144.7,0
	c-4.7-11-11.3-24.7-17-34.7c-46,8-89.7,22-130.7,41C97.3,321,75,442.7,86,562.3c55,41,108,65.7,160.3,82
	c13-17.7,24.3-36.7,34.3-56.3c-19-7-37-16-54-26.3c4.7-3.3,9-7,13.3-10.3c104.3,48.7,217.3,48.7,320.3,0c4.3,3.7,8.7,7,13.3,10.3
	c-17,10.3-35.3,19-54,26.3c10,19.7,21.3,38.7,34.3,56.3c52.3-16.3,105.7-41,160.3-82c13-139-22.3-259.3-94-366H619.7z M294.7,489
	c-31.3,0-57-29-57-64.7s25-64.7,57-64.7s57.3,29,57,64.7C351.7,459.7,326.7,489,294.7,489z M505,489c-31.3,0-57-29-57-64.7
	s25-64.7,57-64.7s57.3,29,57,64.7C562,459.7,537,489,505,489z"/>
</svg>
