<?xml version="1.0" encoding="UTF-8"?><svg id="Layer_1" xmlns="http://www.w3.org/2000/svg" viewBox="0 0 733.33 733.33"><defs><style>.cls-1{fill:#d4d4d4;fill-rule:evenodd;stroke-width:0px;}</style></defs><path class="cls-1" d="m733.33,100c0-55.23-44.77-100-100-100H100C44.77,0,0,44.77,0,100v366.67c0,55.23,44.77,100,100,100h233.33v100h-166.67c-18.41,0-33.33,14.92-33.33,33.33s14.92,33.33,33.33,33.33h400c18.41,0,33.33-14.92,33.33-33.33s-14.92-33.33-33.33-33.33h-166.67v-100h233.33c55.23,0,100-44.77,100-100V100Zm-66.67,0c0-18.41-14.92-33.33-33.33-33.33H100c-18.41,0-33.33,14.92-33.33,33.33v366.67c0,18.41,14.92,33.33,33.33,33.33h533.33c18.41,0,33.33-14.92,33.33-33.33V100Z"/></svg>