<?xml version="1.0" encoding="UTF-8"?><svg id="Layer_1" xmlns="http://www.w3.org/2000/svg" viewBox="0 0 798.91 799.41"><defs><style>.cls-1{fill:#ef4444;fill-rule:evenodd;stroke-width:0px;}</style></defs><path class="cls-1" d="m374.41.33c-2.55.3-11.25,1.2-19.3,2-93.65,9.35-188,57.65-251.8,128.95C32.76,210.13-3.09,307.98.21,412.23c5.75,180.05,129.5,332.5,305.05,375.9,102.95,25.45,216.15,7.3,305.85-49,89.5-56.25,152.15-142.9,177.2-245.2,8.6-35.05,10.6-52.9,10.6-94.35s-2-59.3-10.6-94.35C748.71,143.48,615.51,24.48,449.76,2.78c-14.2-1.85-65.85-3.5-75.35-2.45m68,77.4c55.7,7.2,107.85,28.65,154.55,63.55,16.45,12.3,48.8,44.65,61.1,61.1,28.05,37.55,48.8,81.7,58.2,123.95,10.7,48.25,10.7,98.25,0,146.5-20.7,93.05-86.25,175.65-173.15,218.15-31.4,15.35-63.8,25.4-99.35,30.8-21.2,3.25-66.8,3.25-88,0-97.4-14.8-179.6-67.95-231.35-149.65-10.7-16.85-24.7-46.25-31.7-66.6-12.05-34.85-17.25-66.9-17.25-105.95,0-51.95,10.05-96.25,32.3-142,17-34.9,34.3-59,62.65-87.35,28.35-28.35,52.45-45.65,87.35-62.65,57.65-28.05,120.35-38.15,184.65-29.85m-57.35,136.35c-11.2,3.65-17.55,10.05-20.65,20.75-1.8,6.1-2,20.05-1.7,105.55q.4,98.5,3.3,104c3.65,6.85,10.65,13.05,17.3,15.4,6.6,2.3,26.3,2.3,32.9,0,6.65-2.35,13.65-8.55,17.3-15.4q2.9-5.45,3.3-104,.4-107.6-7.25-116.75c-6.2-7.4-12.85-9.85-27.8-10.25-7.35-.2-14.85.1-16.7.7m4,312c-9.45,3.1-18.8,11.15-23.35,20.1-3.5,7-4.1,19.65-1.25,28.15,4.7,14.25,20.15,25.25,35.3,25.25s30.6-11,35.3-25.25c2.85-8.5,2.25-21.15-1.25-28.15-3.25-6.4-11.05-14.3-17.4-17.6-5.8-3-21.45-4.45-27.35-2.5"/></svg>