<?xml version="1.0" encoding="utf-8"?>
<!-- Generator: Adobe Illustrator 27.9.0, SVG Export Plug-In . SVG Version: 6.00 Build 0)  -->
<svg version="1.1" id="Layer_1" xmlns="http://www.w3.org/2000/svg" xmlns:xlink="http://www.w3.org/1999/xlink" x="0px" y="0px"
	 viewBox="0 0 2500 549" style="enable-background:new 0 0 2500 549;" xml:space="preserve">
<style type="text/css">
	.st0{fill:#A3A3A3;}
</style>
<path class="st0" d="M226.5,312.2h92.4l27,17.5H222.4L167,501c-61.2-23.7-117.9-78.7-141.6-140.6C0,300.5,0,225.2,25.9,165.1
	c24.3-61.8,82.6-117.7,144.6-140.6C219.3,4.2,284.7,2.1,336.4,18c59.4,17,115.5,59.6,148.1,115.2c36.5,61,46.7,138.4,24.6,208
	c-14,46.2-42.9,90.4-82.6,122l-68.2-113.6l94.9,52.9c0.5,0,0.8-0.6,0.5-1.2L329.4,294.1l160.8,24.5c0.6,0,0.8-0.3,0.8-0.5l-1.1-0.8
	l-151.6-53.2l157.6-38c0.5,0,0.5-0.5,0.3-0.8l-161.7,10.5L461.1,140c0.3-0.5-0.8-0.8-1.1-0.2l-142.2,72.1l78.5-138.5
	c0-0.2,0-0.8-0.5-0.5L293.3,193.2L313,35c0-0.3-0.6-0.6-1.1-0.3l-47.2,153.5L223.4,30.1c-0.3-0.3-0.8-0.5-1.1,0l11.4,164L136.3,67.4
	c-0.3-0.3-0.6,0-0.8,0.3L209.2,208L69.9,131.8c-0.3,0-0.8,0.3-0.8,0.6L193,234.1L34.8,217.4c-0.6,0.3-0.6,0.8,0,1l153.3,44.8
	L35.6,308.1c-0.3,0.2-0.3,0.8,0,1l157.3-18.3l-123.6,105c-0.3,0-0.5,0.5,0,0.8L71,396l99-51.8l23.2-37h26.4l-18.3-12.9l61.2-98.3
	L226.5,312.2L226.5,312.2z M682.5,441.5H559.1l98.8-352.7h252.9l-24.1,83.7h-129l-16.6,60h129.1l-21.8,77h-129L682.5,441.5z
	 M968,441.5H846l72.3-257.6h122L968,441.5z M1046.9,159.3H925l19.9-70.5h121.9L1046.9,159.3z M1284.4,441.5h-119.6l8.5-28.8
	c-24.1,20.3-48.7,35-87.9,35c-39.7,0-64.8-18.9-64.8-59.1c0-44.4,17.5-110.6,43.5-156.9c18.9-34.5,52.9-52.5,93.1-52.5
	c34.5,0,60,15.1,69.9,34l34-124.3H1383L1284.4,441.5z M1192.6,260.4c-10.9,0-21.7,3.3-27.9,18.4c-9,21.7-17,43-17,64.3
	c0,10,7.1,18.4,18.9,18.4c9.4,0,15.6-2.8,20.8-6.1l24.6-84.6C1207.8,264.7,1200.2,260.4,1192.6,260.4 M1628.7,329h-168.3
	c-3.3,13.7-6.6,23.1-6.6,34c0,5.2,0.9,18.4,17.9,18.4s24.6-6.6,31.7-31.7H1623c-15.1,73.3-102.1,98.3-155.5,98.3
	c-72.3,0-128.6-10.4-128.6-79.9c0-38.3,19.4-101.6,44.9-135.2c30.7-40.2,84.1-55.3,133.3-55.3c75.6,0,124.8,15.6,124.8,79.9
	C1641.9,273.2,1635.3,307.7,1628.7,329 M1506.7,242.5c-15.1,0-25.5,10.4-32.1,36.4h50.1c1.4-5.2,3.3-13.2,3.3-18
	C1528,246.7,1519.5,242.5,1506.7,242.5 M1751.3,441.5h-122l98.8-352.7h122L1751.3,441.5z M1912.4,441.5h-122l72.3-257.6h122
	L1912.4,441.5z M1991.3,159.3h-121.9l19.9-70.5h121.9L1991.3,159.3z M2210.6,183.9l10.6,58.2h-93.3l-27.4,97.8
	c-2.4,7.6-4.3,17-4.3,23.2c0,11.3,4.7,15.1,21.3,15.1h26l-18,63.4h-108.7c-35.9,0-49.6-17.5-49.6-44c0-10.8,1.4-22.7,5.2-35.9
	l66.2-234.9h121.9l-16.1,57.2L2210.6,183.9L2210.6,183.9z M556.6,481.1H587l-19.4,63.4h-30.3L556.6,481.1z M662.7,481.2h44.5
	l11.4,42.3h0.3l12.9-42.3h26.4l-19.5,63.3l-42.6,0.1l-12.3-45.2h-0.2l-13.6,45h-26.4L662.7,481.2z M815.8,481.2h33.5l5.9,39.9
	l30.6-39.9h31l-51.1,63.3h-37.2L815.8,481.2z M975,481.2l69.2-0.1l-3.9,12.9h-39.8l-3.8,13h37.3l-3.7,12.2H993l-3.8,12.6h40.2
	l-4.1,12.8h-69.5L975,481.2z M1272,496.7h-23.7l4.7-15.4l77.7-0.1l-4.7,15.4h-23.7l-14.5,47.7h-30.4L1272,496.7z M1393.6,481.1h46.1
	l2.2,42.3h0.2l27.5-42.4h46.2l-19.2,63.4h-28.2l14.4-47.8h-0.2l-34.2,47.8H1419l-4.2-47.8h-0.3l-14.4,47.6h-25.8L1393.6,481.1z
	 M1709.3,481.2h44.4l11.4,42.3h0.3l12.9-42.3h26.4l-19.3,63.4l-43.1-0.1l-12-45.1h-0.2l-13.8,45.1h-26.4L1709.3,481.2z
	 M1877.6,496.6h-23.7l4.7-15.4h77.8l-4.7,15.4H1908l-14.5,47.9h-30.4L1877.6,496.6z M2405.7,389.7c-18.3,0-33.2,14.9-33.2,33.2
	c0,18.3,14.9,33.2,33.2,33.2s33.2-14.9,33.2-33.2C2438.8,404.6,2423.9,389.7,2405.7,389.7 M2405.7,450.1
	c-15.1,0-27.3-12.2-27.3-27.3c0-15.1,12.2-27.3,27.3-27.3s27.3,12.2,27.3,27.3C2432.9,437.9,2420.7,450.1,2405.7,450.1"/>
<path class="st0" d="M2419,416c0-6.6-3.8-10.3-12-10.3h-13v34.2h6v-14h4.6l8.5,14h6.6l-8.9-14.5C2415.4,424.8,2419,421.9,2419,416
	 M2400,420.6V411h4.6c3.8-0.1,8.1,0.2,8.1,4.7c0,4.6-4.3,4.8-8.1,4.8L2400,420.6L2400,420.6z M1137.3,500.4
	c-0.7-0.7-0.7-1.9-0.4-2.9c1-3.2,5-5.3,11.4-5.3c3.8,0,9.6,0.4,11.3,1.8c1.7,1.1,2.4,3.2,1.7,5.1h26.9c3.2-11.3-4-18.6-34.4-18.6
	c-28.9,0-45.3,6.2-49.5,20c-1.1,3.6-1.2,8,1.8,11c7.4,7.4,41,10.4,43.9,14.4c0.6,0.8,0.8,1.9,0.4,2.9c-1.5,5.1-8.8,6.4-15,6.4
	c-4,0-9.2-0.9-10.7-2.5c-1.4-1.7-1.4-4.2-0.6-5.9h-28.2c-2.8,9.8-4,20.1,35.1,20c32.9,0,47.9-8.1,51.7-20.6c1.9-6.1,0-9.5-2.1-11.7
	C1173.3,507.1,1140.8,504.3,1137.3,500.4 M1577.7,481.2l69.2-0.1L1643,494h-39.8l-3.8,13h37.3l-3.7,12.2h-37.3l-3.8,12.6h40.2
	l-4.1,12.8h-69.5L1577.7,481.2z M2375.2,183.9L2309,326.6l1.9-142.8h-123.3l23.6,257.6c-3,15.1-8,23.6-17.5,27.8
	c-10.4,4.6-33.8,3.8-42,3.3l-1.5,0.1l-19.5,70l83.3,0.1c49.2,0,73.3-24.7,108.3-79.5L2500,183.9H2375.2L2375.2,183.9z M2015.2,500.2
	c-0.7-0.7-0.7-1.9-0.4-2.9c1-3.2,5-5.3,11.4-5.3c3.8,0,9.6,0.4,11.3,1.8c1.7,1.1,2.4,3.2,1.7,5.1h26.9c3.2-11.3-4-18.6-34.4-18.6
	c-28.9,0-45.3,6.2-49.4,20c-1.1,3.6-1.2,8,1.8,11c7.4,7.4,41,10.4,43.9,14.4c0.6,0.8,0.8,1.9,0.4,2.9c-1.5,5.1-8.8,6.4-15,6.4
	c-4,0-9.2-0.9-10.7-2.5c-1.4-1.7-1.4-4.2-0.6-5.9h-28.2c-2.8,9.8-4,20.1,35.1,20c32.9,0,47.9-8.1,51.7-20.6c1.8-6.1,0-9.5-2.1-11.7
	C2051.2,506.9,2018.7,504.2,2015.2,500.2"/>
</svg>
