<?xml version="1.0" encoding="UTF-8"?><svg id="Layer_1" xmlns="http://www.w3.org/2000/svg" viewBox="0 0 737.32 737.22"><defs><style>.cls-1{fill:#d4d4d4;stroke-width:0px;}</style></defs><path class="cls-1" d="m287.62,370.85c6.03,6.2,14.37,10.1,23.65,10.27h.33c7.45,0,14.2-3,19.13-7.88l42.58-42.58c4.85-4.9,7.88-11.65,7.88-19.13v-.3.03c-.17-9.3-4.08-17.62-10.25-23.65l-14.1-14.1c1.25-2.82,2.42-5.66,3.52-8.52l19.93.1c.58.05,1.22.05,1.9.05,16.23,0,29.45-12.75,30.22-28.78v-60.25c-.78-16.1-14.03-28.85-30.22-28.85-.68,0-1.32.02-1.98.07h.1-19.92c-1.1-2.9-2.3-5.75-3.55-8.57l14.18-14.02c6.27-5.58,10.2-13.67,10.2-22.7,0-7.85-2.97-15-7.88-20.4l.02.02-42.55-42.55c-5.38-4.87-12.53-7.85-20.37-7.85-9.03,0-17.13,3.95-22.7,10.2l-.03.02-14.1,14.1c-2.82-1.25-5.66-2.42-8.52-3.53l.1-19.95c.05-.58.05-1.23.05-1.9,0-16.22-12.75-29.45-28.78-30.22h-60.28c-16.1.78-28.85,14.02-28.85,30.22,0,.67.02,1.32.07,1.97v-.1,19.92c-2.9,1.1-5.73,2.28-8.57,3.55l-14.02-14.17c-5.58-6.3-13.67-10.28-22.7-10.28-7.85,0-15.02,3-20.4,7.92l.02-.02-42.55,42.55c-4.87,4.97-7.9,11.8-7.9,19.32,0,1.55.13,3.05.38,4.52l-.02-.15c1.23,7.65,4.77,14.3,9.9,19.38h0l14.1,14.08c-1.28,2.85-2.47,5.7-3.58,8.62l-19.92-.1c-.58-.05-1.25-.05-1.9-.05-16.2,0-29.43,12.75-30.22,28.75v60.28c.78,16.1,14.02,28.85,30.22,28.85.67,0,1.32-.03,1.97-.08h-.1,19.92c1.1,2.9,2.3,5.73,3.55,8.58l-14.15,14.02c-6.2,6.05-10.08,14.42-10.22,23.7v.33c0,7.42,3,14.15,7.88,19.02l42.55,42.57c4.9,4.85,11.65,7.85,19.12,7.85h.28c9.3-.17,17.62-4.08,23.65-10.25h0l14.1-14.07c2.85,1.27,5.7,2.45,8.6,3.57l-.1,19.9c-.05.58-.05,1.22-.05,1.9,0,16.23,12.75,29.45,28.77,30.22h60.25c16.1-.78,28.85-14.03,28.85-30.22,0-.68-.03-1.32-.08-1.98v.1-19.95c2.9-1.1,5.75-2.3,8.58-3.55l14.02,14.1Zm-60.07,4.02h-42.72l.15-26.82c0-.45-.22-.82-.25-1.27-.38-2.62-1.03-5-1.92-7.25l.08.2c-1.48-3.15-3.82-5.68-6.75-7.33l-.08-.05c-1.08-.73-2.33-1.38-3.63-1.87l-.13-.05c-.35-.13-.6-.4-.97-.5-10.63-3.05-19.88-6.98-28.5-11.88l.65.32c-2.47-1.35-5.45-2.15-8.6-2.15h-.02c-.45,0-.8.1-1.28.1-4.62.15-8.77,2-11.92,4.92h0l-.63.25-18.12,19.97-31.15-31.15,19.08-18.88.28-.68c2.87-3.08,4.73-7.17,4.93-11.68v-.05c.02-.52.13-.92.13-1.45v-.08c0-3.15-.8-6.12-2.2-8.7l.05.1c-4.58-7.98-8.5-17.18-11.33-26.87l-.22-.9c-.1-.38-.4-.65-.52-1.03-1.05-2.38-2.28-4.43-3.73-6.33l.05.08c-.82-.85-1.72-1.62-2.7-2.3l-.05-.05c-.85-.7-1.78-1.33-2.78-1.87l-.1-.05c-.95-.45-2.1-.82-3.28-1.1l-.13-.03c-1.05-.35-2.28-.6-3.55-.73h-.08c-.42-.03-.77-.25-1.2-.25h-26.92v-42.72l26.93.13c3.8-.1,7.3-1.35,10.18-3.4l-.05.05c.6-.35,1.13-.7,1.6-1.08l-.05.03c2.73-2.2,4.77-5.15,5.88-8.5l.02-.13c.07-.25.35-.38.43-.62,3.05-10.6,6.97-19.83,11.87-28.43l-.33.63c1.35-2.5,2.15-5.47,2.15-8.62h0c.02-.52-.1-.93-.13-1.45-.2-4.55-2-8.62-4.88-11.72h0l-.28-.67-19.05-19.05,30.2-30.2,18.88,19.08c.45.45,1.17.3,1.65.7,3,2.73,6.92,4.5,11.25,4.75h.05l.43.13c3.38,0,6.53-.9,9.25-2.45l-.1.05c7.95-4.58,17.15-8.5,26.85-11.3l.9-.22c.38-.1.65-.4,1.03-.52,1.35-.52,2.5-1.13,3.57-1.82l-.08.05c2.95-1.93,5.35-4.45,7.05-7.45l.05-.1c.43-.93.8-2.02,1.05-3.15l.03-.13c.35-1.07.62-2.35.75-3.68v-.08c.03-.4.25-.77.25-1.17v-26.93h42.75l-.15,26.82c0,.42.22.8.25,1.23.13,1.38.38,2.65.78,3.87l-.03-.13c.3,1.25.68,2.35,1.13,3.4l-.05-.13c.6,1.13,1.25,2.1,2,3l-.03-.02c.7,1,1.45,1.9,2.3,2.7h0c.82.67,1.73,1.32,2.7,1.85l.1.05c1,.67,2.17,1.28,3.38,1.75l.13.05c.38.13.65.43,1.05.52,10.6,3.05,19.8,6.95,28.4,11.83l-.65-.33c2.52,1.5,5.55,2.4,8.8,2.4,4.68,0,8.93-1.85,12.05-4.88h0c.48-.37,1.15-.22,1.57-.65l19.05-19.05,30.22,30.23-19.08,18.88-.27.67c-2.87,3.08-4.7,7.15-4.9,11.63v.05c-.03.52-.15.95-.13,1.48v.05c0,3.15.8,6.1,2.2,8.7l-.05-.1c4.55,7.98,8.5,17.2,11.33,26.92l.22.92c.08.27.38.4.45.65,1.15,3.45,3.2,6.35,5.85,8.52l.03.03c.45.35,1,.7,1.52,1.05l.08.05c2.8,2.03,6.3,3.25,10.07,3.35h26.95v42.72l-26.92-.13c-.4,0-.73.2-1.1.22-1.5.13-2.87.43-4.2.85l.13-.03c-1.13.27-2.1.6-3.03,1.03l.13-.05c-1.22.65-2.27,1.38-3.25,2.2l.03-.03c-.92.65-1.73,1.35-2.47,2.13h0c-.7.85-1.38,1.8-1.92,2.82l-.05.1c-.65.97-1.22,2.1-1.7,3.27l-.05.13c-.13.38-.43.65-.55,1.05-3.03,10.58-6.95,19.78-11.82,28.38l.32-.62c-1.35,2.5-2.15,5.45-2.15,8.6v.08h0c-.03.48.08.85.1,1.33.17,4.6,2,8.72,4.9,11.82h0l.27.65,19.97,18.1-31.12,31.15-18.92-19.07-.62-.25c-3.08-2.9-7.2-4.75-11.75-4.92h-.03c-.5-.03-.87-.13-1.38-.13-3.17,0-6.15.8-8.75,2.2l.1-.05c-7.98,4.55-17.2,8.5-26.92,11.33l-.92.22c-.43.13-.7.43-1.13.57-2.38,1.08-4.43,2.3-6.3,3.75l.08-.05c-.78.78-1.48,1.6-2.13,2.5l-.05.05c-.75.9-1.45,1.92-2.03,3l-.05.1c-.4.9-.78,1.98-1.03,3.08l-.03.13c-.38,1.1-.62,2.4-.75,3.73v.08c-.03.4-.22.75-.22,1.15l.03,26.85Zm50.98-168.7h0c0-39.95-32.38-72.32-72.32-72.32s-72.32,32.38-72.32,72.32,32.38,72.32,72.32,72.32h0c39.93-.05,72.25-32.4,72.32-72.3h0v-.02Zm-72.33,34.83h0c-19.23,0-34.82-15.58-34.82-34.82s15.58-34.82,34.82-34.82,34.82,15.58,34.82,34.82h0c-.03,19.23-15.6,34.77-34.8,34.82h-.02Zm498.15,217.07h-21.93c-1.35-3.57-2.83-7.1-4.4-10.58l15.57-15.4c6.48-5.73,10.52-14.05,10.52-23.33,0-8.02-3.03-15.33-8-20.85l.02.02-45.23-45.23c-5.03-4.95-11.92-8-19.55-8h-.3.02c-9.55.2-18.13,4.17-24.3,10.52l-15.53,15.53c-3.47-1.57-6.97-3.02-10.5-4.35l.1-21.95c.05-.6.08-1.33.08-2.03,0-16.58-13.02-30.12-29.37-30.95h-64c-16.48.82-29.5,14.4-29.5,31,0,.7.02,1.4.08,2.1v-.1,21.92c-3.55,1.35-7.05,2.8-10.5,4.38l-15.47-15.58c-6.17-6.35-14.75-10.35-24.25-10.55h-.35c-7.6,0-14.48,3.05-19.5,8l-45.25,45.23c-4.95,5.47-7.98,12.75-7.98,20.75,0,9.28,4.08,17.6,10.52,23.27l.03.02,15.53,15.53c-1.57,3.47-3.05,7-4.4,10.6l-21.92-.1c-.6-.05-1.33-.08-2.03-.08-16.58,0-30.12,13.02-30.95,29.37v64.05c.82,16.45,14.37,29.45,30.95,29.45.73,0,1.43-.02,2.13-.08h-.1,21.92c1.35,3.55,2.8,7.05,4.38,10.52l-15.55,15.45c-6.38,6.2-10.37,14.8-10.55,24.32v.35c0,7.6,3.05,14.48,8,19.45l45.23,45.23c5,4.97,11.92,8.05,19.55,8.05h.25c9.57-.2,18.17-4.25,24.35-10.62h0l15.45-15.47c3.5,1.6,7.03,3.05,10.62,4.4l-.1,21.9c-.05.6-.08,1.32-.08,2.02,0,16.58,13.02,30.1,29.37,30.92h64c16.48-.83,29.5-14.38,29.5-30.98,0-.7-.02-1.4-.08-2.08v.1-21.95c3.55-1.35,7.05-2.8,10.55-4.37l15.47,15.65c6.2,6.3,14.75,10.25,24.22,10.45h.27c7.6,0,14.5-3.05,19.53-8h0l45.13-45.17c5-5,8.1-11.92,8.1-19.57v-.1h0c-.15-9.6-4.15-18.25-10.5-24.5l-15.55-15.55c1.57-3.45,3-6.93,4.33-10.48l21.95.1c.6.05,1.32.08,2.02.08,16.58,0,30.1-13.02,30.92-29.37v-64c-.83-16.45-14.35-29.48-30.92-29.48-.72,0-1.42.02-2.12.08h.1-.02Zm-4.55,85.2l-29.8-.15c-.35,0-.62.17-.95.2-1.57.12-3.03.43-4.4.9l.12-.02c-3.38,1.13-6.25,2.95-8.6,5.3h0c-.68.83-1.32,1.75-1.88,2.72l-.05.1c-.65,1-1.25,2.12-1.73,3.32l-.05.12c-.15.4-.45.7-.58,1.1-3.2,11.32-7.4,21.18-12.65,30.35l.35-.65c-1.35,2.48-2.15,5.45-2.15,8.6v.15h0c0,.37.08.68.1,1.07.12,4.65,1.98,8.85,4.95,12h0l.27.65,21.05,21.05-33.75,33.75-20.85-21.05c-.2-.2-.5-.1-.7-.3-3.07-2.87-7.15-4.7-11.68-4.9h-.05c-.5-.02-.9-.12-1.4-.12h-.12c-3.12,0-6.08.8-8.62,2.2l.1-.05c-8.52,4.85-18.42,9.08-28.8,12.1l-1,.25c-.43.12-.7.43-1.1.58-1.25.5-2.33,1.05-3.35,1.73l.08-.05c-5.03,3.2-8.45,8.5-9.08,14.62v.08c-.02.37-.23.7-.23,1.1v29.77h-47.75l.15-29.7c0-.4-.2-.75-.23-1.15-.12-1.38-.37-2.62-.78-3.82l.02.12c-1-4.68-3.92-8.52-7.88-10.75l-.08-.05c-1.1-.75-2.33-1.4-3.65-1.9l-.12-.05c-.35-.12-.6-.4-.97-.5-11.35-3.22-21.25-7.45-30.45-12.7l.68.35c-2.48-1.32-5.4-2.1-8.52-2.1h-.05c-.6.02-1.2.08-1.77.15h.08c-4.45.23-8.45,2-11.5,4.8l.02-.02c-.23.2-.55.1-.78.33l-21.02,21.05-33.75-33.75,21.1-20.9c.2-.2.12-.52.3-.72,2.85-3.07,4.68-7.12,4.87-11.6v-.05c.02-.52.15-.95.12-1.48v-.05c0-3.15-.8-6.1-2.2-8.7l.05.1c-4.87-8.52-9.08-18.38-12.1-28.75l-.25-.97c-.1-.4-.4-.65-.52-1.03-.52-1.32-1.13-2.48-1.82-3.55l.05.08c-.58-1.05-1.18-1.95-1.88-2.78l.02.02c-2.5-2.85-5.9-4.87-9.75-5.6l-.1-.02c-.68-.2-1.5-.37-2.35-.47h-.1c-.55-.05-1.03-.33-1.57-.33h-29.77v-47.75l29.77.15c4.75-.15,9.03-2.08,12.17-5.12h0c1.3-1.3,2.37-2.85,3.15-4.55l.05-.1c.83-1.38,2.23-2.27,2.68-3.9,3.28-11.37,7.47-21.25,12.7-30.47l-.35.68c1.38-2.5,2.17-5.47,2.17-8.62h0c.02-.47-.08-.85-.1-1.32-.15-4.62-2-8.77-4.95-11.9h0l-.23-.58-21.05-21.1,33.75-33.75,20.9,21.1c.45.45,1.13.27,1.6.68,3.07,2.87,7.18,4.7,11.67,4.9h.08c3.38,0,6.52-.9,9.25-2.48l-.1.05c8.52-4.9,18.4-9.1,28.77-12.1l.95-.25c.37-.1.65-.4,1.03-.52,1.32-.5,2.45-1.1,3.5-1.8l-.08.05c4.15-2.23,7.15-6.08,8.2-10.68l.02-.1c.37-1.13.65-2.43.78-3.77v-.08c.02-.4.23-.72.23-1.13v-29.77h47.75l-.15,29.7c0,.4.2.7.23,1.1.15,1.63.47,3.12.97,4.55l-.05-.12c.2.78.43,1.4.68,2.02l-.05-.1c2.15,5.15,6.45,9.08,11.75,10.65l.12.02c11.35,3.25,21.2,7.45,30.42,12.67l-.68-.35c2.62,1.5,5.78,2.4,9.15,2.4h.02c4.52-.2,8.6-2,11.7-4.87h0c.47-.37,1.15-.23,1.6-.65l21.05-21.05,33.75,33.75-21.1,20.87-.27.65c-2.9,3.07-4.72,7.18-4.93,11.7v.05c-.02.5-.12.9-.12,1.4v.1c0,3.15.8,6.13,2.2,8.7l-.05-.1c4.9,8.55,9.12,18.42,12.13,28.82l.23.95c.08.3.4.43.47.7,1.15,3.42,3.18,6.33,5.82,8.48l.02.02c.47.35,1,.72,1.55,1.05l.08.05c2.83,2.02,6.3,3.28,10.07,3.38h29.8l.03,47.68Zm-180.38-99.55h-.02c-41.77,0-75.65,33.87-75.65,75.65s33.87,75.65,75.65,75.65,75.65-33.85,75.65-75.62h0c-.05-41.77-33.87-75.62-75.62-75.68h0Zm0,113.82h-.02c-21.08,0-38.15-17.08-38.15-38.15s17.08-38.15,38.15-38.15,38.15,17.08,38.15,38.15v.02h0c-.05,21.05-17.1,38.1-38.12,38.12h0Z"/></svg>