<?xml version="1.0" encoding="UTF-8"?><svg id="Layer_1" xmlns="http://www.w3.org/2000/svg" xmlns:xlink="http://www.w3.org/1999/xlink" viewBox="0 0 248.91 165.87"><defs><style>.cls-1{fill:url(#linear-gradient);}.cls-1,.cls-2{stroke-width:0px;}.cls-3{stroke:#383838;}.cls-3,.cls-4,.cls-5{fill:none;stroke-miterlimit:10;}.cls-3,.cls-5{stroke-width:.5px;}.cls-2{fill:#5de289;}.cls-6{fill:#e5e5e5;font-family:ProximaNova-Regular, 'Proxima Nova';font-size:10px;}.cls-4{stroke:#5de289;stroke-width:2px;}.cls-5{stroke:#777;}</style><linearGradient id="linear-gradient" x1="105.48" y1="-32.47" x2="105.48" y2="119.11" gradientUnits="userSpaceOnUse"><stop offset="0" stop-color="#5de289"/><stop offset="1" stop-color="#5de289" stop-opacity="0"/></linearGradient></defs><line class="cls-3" x1=".64" y1="114.8" x2="209.94" y2="114.8"/><line class="cls-3" x1=".64" y1="80.56" x2="209.94" y2="80.56"/><line class="cls-3" x1=".64" y1="46.32" x2="209.94" y2="46.32"/><line class="cls-3" x1=".64" y1="12.08" x2="209.94" y2="12.08"/><line class="cls-3" x1="34.91" x2="34.91" y2="149.27"/><line class="cls-3" x1="69.15" x2="69.15" y2="149.27"/><line class="cls-3" x1="103.39" x2="103.39" y2="149.27"/><line class="cls-3" x1="137.63" x2="137.63" y2="149.27"/><line class="cls-3" x1="171.39" x2="171.39" y2="149.27"/><line class="cls-3" x1="205.63" x2="205.63" y2="149.27"/><line class="cls-5" x1=".73" y1="149.04" x2="247.94" y2="149.04"/><line class="cls-5" x1="15.72" y1="149.04" x2="15.72" y2="152.35"/><line class="cls-5" x1="76.48" y1="149.39" x2="76.48" y2="152.71"/><line class="cls-5" x1="136.48" y1="149.39" x2="136.48" y2="152.71"/><line class="cls-5" x1="196.48" y1="149.39" x2="196.48" y2="152.71"/><text class="cls-6" transform="translate(60.91 162.62)"><tspan x="0" y="0">12:00am</tspan></text><text class="cls-6" transform="translate(.91 162.62)"><tspan x="0" y="0">10:00am</tspan></text><text class="cls-6" transform="translate(121.91 162.62)"><tspan x="0" y="0">2:00pm</tspan></text><text class="cls-6" transform="translate(182.91 162.62)"><tspan x="0" y="0">4:00pm</tspan></text><line class="cls-5" x1="226.82" y1="72.87" x2="223.51" y2="72.87"/><line class="cls-5" x1="226.82" y1="102.87" x2="223.51" y2="102.87"/><line class="cls-5" x1="226.82" y1="42.87" x2="223.51" y2="42.87"/><line class="cls-5" x1="226.82" y1="132.87" x2="223.51" y2="132.87"/><text class="cls-6" transform="translate(231.19 135.9)"><tspan x="0" y="0">14.6</tspan></text><text class="cls-6" transform="translate(231.19 105.9)"><tspan x="0" y="0">14.8</tspan></text><text class="cls-6" transform="translate(231.19 75.9)"><tspan x="0" y="0">15.0</tspan></text><text class="cls-6" transform="translate(231.19 45.9)"><tspan x="0" y="0">15.2</tspan></text><polyline class="cls-4" points=".82 132.87 8.85 121.34 15.72 125.41 25.82 118.15 34.91 118.56 41.87 130.16 50.13 111.04 55.17 115.25 61.13 111.04 73.51 125.35 88.13 97.04 95.52 100.16 99.19 104.98 103.39 100.16 106.07 80.56 116.13 80.56 126.28 85.85 132.13 83.04 137.63 59.16 144.13 48.04 149.35 40.16 157.24 42.87 166.13 37.04 173.94 44.9 181.13 55.04 189.13 53.04 192.75 59.16 199.13 54.04 202.28 56.04 210.14 55.59"/><circle class="cls-2" cx="209.63" cy="55.54" r="2.5"/><polygon class="cls-1" points=".82 132.87 8.85 121.34 15.72 125.41 25.82 118.15 34.91 118.56 41.87 130.16 50.13 111.04 55.17 115.25 61.13 111.04 73.51 125.35 88.13 97.04 95.52 100.16 99.19 104.98 103.39 100.16 106.07 80.56 116.13 80.56 126.28 85.85 132.13 83.04 137.63 59.16 144.13 48.04 149.35 40.16 157.24 42.87 166.13 37.04 173.94 44.9 181.13 55.04 189.13 53.04 192.75 59.16 199.13 54.04 202.28 56.04 210.14 55.59 210.14 132.87 .82 132.87"/></svg>