<?xml version="1.0" encoding="UTF-8"?><svg id="Layer_1" xmlns="http://www.w3.org/2000/svg" xmlns:xlink="http://www.w3.org/1999/xlink" viewBox="0 0 114 38.14"><defs><style>.cls-1{fill:url(#linear-gradient);stroke-width:0px;}.cls-2{stroke:#5de289;stroke-width:2px;}.cls-2,.cls-3,.cls-4{fill:none;stroke-linecap:round;stroke-linejoin:round;}.cls-3,.cls-4{stroke:#777;}.cls-4{stroke-dasharray:0 0 1 3;}</style><linearGradient id="linear-gradient" x1="57" y1="35.16" x2="57" y2="-12.07" gradientUnits="userSpaceOnUse"><stop offset="0" stop-color="#5de289" stop-opacity="0"/><stop offset="1" stop-color="#5de289"/></linearGradient></defs><line class="cls-3" x1="1" y1="37.64" x2="1.5" y2="37.64"/><line class="cls-4" x1="4.5" y1="37.64" x2="111" y2="37.64"/><line class="cls-3" x1="112.5" y1="37.64" x2="113" y2="37.64"/><polyline class="cls-2" points="1 27.52 3.5 28.14 5.5 29.14 9.5 28.14 11.5 29.14 18.5 20.14 23.5 21.14 26.5 23.14 30.5 22.14 34.5 24.14 41.5 19.14 44.5 20.14 50.5 15.14 55.5 16.14 58.5 18.14 60.5 19.14 65.5 20.14 73.5 19.14 75.5 18.14 77.5 18.14 90.52 15.14 93.5 12.14 97.5 7.14 103.5 7.14 110.5 2.14 113 1"/><polygon class="cls-1" points="1 28.02 3.5 28.64 5.5 29.64 9.5 28.64 11.5 29.64 18.5 20.64 23.5 21.64 26.5 23.64 30.5 22.64 34.5 24.64 41.5 19.64 44.5 20.64 50.5 15.64 55.5 16.64 58.5 18.64 60.5 19.64 65.5 20.64 73.5 19.64 75.5 18.64 77.5 18.64 90.52 15.64 93.5 12.64 97.5 7.64 103.5 7.64 110.5 2.64 113 1.5 113 32.64 1 32.64 1 28.02"/></svg>