<?xml version="1.0" encoding="utf-8"?>
<!-- Generator: Adobe Illustrator 27.9.0, SVG Export Plug-In . SVG Version: 6.00 Build 0)  -->
<svg version="1.1" id="Layer_1" xmlns="http://www.w3.org/2000/svg" xmlns:xlink="http://www.w3.org/1999/xlink" x="0px" y="0px"
	 viewBox="0 0 800 800" style="enable-background:new 0 0 800 800;" xml:space="preserve">
<style type="text/css">
	.st0{fill:#FFFFFF;}
</style>
<path class="st0" d="M72.3,351.8c-10.2-15.3-6.1-36,9.3-46.2c0,0,0,0,0,0l300-200c11.2-7.5,25.8-7.5,37,0l300,200
	c15.3,10.2,19.5,30.9,9.2,46.2c-6.2,9.3-16.6,14.9-27.8,14.8h-66.7v300c0,18.4-14.9,33.3-33.3,33.3H200c-18.4,0-33.3-14.9-33.3-33.3
	v-300H100l0.6-0.6C89.4,366.5,78.6,361.1,72.3,351.8z"/>
</svg>
