<?xml version="1.0" encoding="UTF-8"?><svg id="Layer_1" xmlns="http://www.w3.org/2000/svg" viewBox="0 0 624 496"><defs><style>.cls-1{stroke-miterlimit:128;}.cls-1,.cls-2{fill:none;stroke:#d4d4d4;stroke-linecap:round;stroke-width:48px;}.cls-2{stroke-linejoin:round;}</style></defs><path class="cls-2" d="m24,88v320c0,35.35,28.65,64,64,64h448c35.35,0,64-28.65,64-64V88c0-35.35-28.65-64-64-64H88c-35.35,0-64,28.65-64,64Z"/><path class="cls-1" d="m408,184h96"/><path class="cls-1" d="m408,280h96"/><path class="cls-2" d="m280,184c0,35.35-28.65,64-64,64s-64-28.65-64-64,28.65-64,64-64c16.97,0,33.25,6.74,45.25,18.75,12,12,18.75,28.28,18.75,45.25Z"/><path class="cls-1" d="m88,376c89.06-100.38,193.66-68.83,256,0"/></svg>