<?xml version="1.0" encoding="UTF-8"?><svg id="Layer_1" xmlns="http://www.w3.org/2000/svg" viewBox="0 0 733.33 733.33"><defs><style>.cls-1{fill:#fff;fill-rule:evenodd;stroke-width:0px;}</style></defs><path class="cls-1" d="m0,366.67C0,164.16,164.16,0,366.67,0s366.67,164.16,366.67,366.67-164.16,366.67-366.67,366.67S0,569.17,0,366.67Zm308.33-33.33c0-18.41,14.92-33.33,33.33-33.33h50c18.41,0,33.33,14.92,33.33,33.33v233.33c0,18.41-14.92,33.33-33.33,33.33h-50c-18.41,0-33.33-14.92-33.33-33.33v-233.33Zm125-133.33c0-36.82-29.85-66.67-66.67-66.67s-66.67,29.85-66.67,66.67,29.85,66.67,66.67,66.67,66.67-29.85,66.67-66.67Z"/></svg>