<?xml version="1.0" encoding="UTF-8"?><svg id="Layer_1" xmlns="http://www.w3.org/2000/svg" viewBox="0 0 720 720"><defs><style>.cls-1{fill:#303030;fill-rule:evenodd;stroke-width:0px;}</style></defs><path class="cls-1" d="m360,80c-154.64,0-280,125.36-280,280s125.36,280,280,280,280-125.36,280-280S514.64,80,360,80ZM0,360C0,161.18,161.18,0,360,0s360,161.18,360,360-161.18,360-360,360S0,558.82,0,360Zm320-160c0-22.09,17.91-40,40-40h.4c22.09,0,40,17.91,40,40s-17.91,40-40,40h-.4c-22.09,0-40-17.91-40-40Zm.4,320c0,22.09,17.91,40,40,40s40-17.91,40-40v-200c0-22.09-17.91-40-40-40s-40,17.91-40,40v200Z"/></svg>