<?xml version="1.0" encoding="utf-8"?>
<!-- Generator: Adobe Illustrator 27.9.0, SVG Export Plug-In . SVG Version: 6.00 Build 0)  -->
<svg version="1.1" id="Layer_1" xmlns="http://www.w3.org/2000/svg" xmlns:xlink="http://www.w3.org/1999/xlink" x="0px" y="0px"
	 viewBox="0 0 800 800" style="enable-background:new 0 0 800 800;" xml:space="preserve">
<style type="text/css">
	.st0{fill-rule:evenodd;clip-rule:evenodd;fill:#FFFFFF;}
</style>
<g id="_x35_151e0c8492e5103c096af88a50059a5">
	<path class="st0" d="M103.3,0.8h593.5c56.4,0,102.5,46.1,102.5,102.5v593.5c0,56.4-46.1,102.5-102.5,102.5H103.3
		c-56.4,0-102.5-46.1-102.5-102.5V103.3C0.8,46.9,46.9,0.8,103.3,0.8L103.3,0.8z M582.4,89.5c-19.8,0-35.9,16.2-35.9,35.9v86
		c0,19.8,16.2,35.9,35.9,35.9h90.3c19.8,0,35.9-16.2,35.9-35.9v-86c0-19.8-16.2-35.9-35.9-35.9H582.4L582.4,89.5z M709,338.4h-70.3
		c6.6,21.7,10.2,44.7,10.2,68.5c0,132.8-111.1,240.5-248.2,240.5c-137.1,0-248.2-107.7-248.2-240.5c0-23.8,3.6-46.8,10.2-68.5H89.5
		v337.3c0,17.5,14.3,31.8,31.7,31.8h556c17.4,0,31.7-14.3,31.7-31.8L709,338.4L709,338.4z M400.7,242.9
		c-88.6,0-160.4,69.6-160.4,155.4s71.8,155.4,160.4,155.4c88.6,0,160.4-69.6,160.4-155.4S489.3,242.9,400.7,242.9z"/>
</g>
</svg>
