<?xml version="1.0" encoding="utf-8"?>
<!-- Generator: Adobe Illustrator 27.9.0, SVG Export Plug-In . SVG Version: 6.00 Build 0)  -->
<svg version="1.1"
	 id="svg9835" xmlns:inkscape="http://www.inkscape.org/namespaces/inkscape" xmlns:rdf="http://www.w3.org/1999/02/22-rdf-syntax-ns#" xmlns:cc="http://creativecommons.org/ns#" xmlns:svg="http://www.w3.org/2000/svg" xmlns:dc="http://purl.org/dc/elements/1.1/" xmlns:sodipodi="http://sodipodi.sourceforge.net/DTD/sodipodi-0.dtd"
	 xmlns="http://www.w3.org/2000/svg" xmlns:xlink="http://www.w3.org/1999/xlink" x="0px" y="0px" viewBox="0 0 339.9 51.7"
	 style="enable-background:new 0 0 339.9 51.7;" xml:space="preserve">
<style type="text/css">
	.st0{fill:#A3A3A3;}
</style>
<sodipodi:namedview  bordercolor="#666666" borderopacity="1.0" fit-margin-bottom="0" fit-margin-left="0" fit-margin-right="0" fit-margin-top="0" id="base" inkscape:current-layer="layer1" inkscape:cx="224.70002" inkscape:cy="32.550025" inkscape:document-units="mm" inkscape:pageopacity="0.0" inkscape:pageshadow="2" inkscape:window-height="744" inkscape:window-maximized="1" inkscape:window-width="1280" inkscape:window-x="-4" inkscape:window-y="-4" inkscape:zoom="1.9959945" pagecolor="#ffffff" showgrid="false">
	</sodipodi:namedview>
<path id="path9659" inkscape:connector-curvature="0" class="st0" d="M42.6,49.5h-5.4V23.4h5.4V49.5z"/>
<path id="path9661" inkscape:connector-curvature="0" class="st0" d="M62.9,31.3c1.3,1,1.9,2.8,1.9,5.2v13h-5.2V37.8
	c0-1-0.1-1.8-0.4-2.3c-0.5-1-1.4-1.5-2.9-1.5c-1.7,0-2.8,0.8-3.5,2.2c-0.3,0.8-0.5,1.7-0.5,2.9v10.5h-5V30.2h4.9v2.9
	c0.7-1,1.3-1.7,1.8-2.2c1-0.8,2.3-1.2,4-1.2C60,29.7,61.6,30.2,62.9,31.3z"/>
<path id="path9663" inkscape:connector-curvature="0" class="st0" d="M67.3,34v-3.6H70V25h5v5.4h3.1V34H75v10.2
	c0,0.8,0.1,1.3,0.3,1.5c0.2,0.2,0.8,0.3,1.9,0.3c0.1,0,0.3,0,0.5,0c0.1,0,0.4,0,0.5,0v3.8l-2.6,0.1c-2.4,0.1-4-0.3-4.9-1.3
	C70.2,47.9,70,47,70,45.8V34H67.3z"/>
<path id="path9665" inkscape:connector-curvature="0" class="st0" d="M93.7,30.6c1.3,0.6,2.5,1.6,3.4,2.8c0.8,1.1,1.3,2.5,1.6,4
	c0.1,0.9,0.2,2.2,0.1,3.8H84.7c0.1,1.9,0.8,3.3,2,4.1c0.8,0.5,1.7,0.8,2.8,0.8c1.1,0,2.1-0.3,2.8-0.9c0.4-0.3,0.7-0.8,1-1.4h5.2
	c-0.1,1.1-0.8,2.3-1.9,3.5c-1.7,1.9-4.1,2.8-7.3,2.8c-2.5,0-4.9-0.8-6.8-2.4c-1.9-1.6-2.9-4.2-2.9-7.7c0-3.4,0.9-5.9,2.7-7.7
	c1.8-1.8,4.1-2.7,6.9-2.7C90.8,29.7,92.3,30,93.7,30.6L93.7,30.6z M86.1,34.9c-0.7,0.8-1.2,1.7-1.3,3h8.7c-0.1-1.4-0.5-2.3-1.3-3.1
	c-0.8-0.7-1.8-1.1-3-1.1C87.8,33.8,86.8,34.2,86.1,34.9z"/>
<path id="path9667" inkscape:connector-curvature="0" class="st0" d="M112.4,29.8c0.1,0,0.2,0,0.5,0V35c-0.3,0-0.6-0.1-0.8-0.1
	c-0.2,0-0.4,0-0.6,0c-2,0-3.4,0.7-4.1,1.9c-0.4,0.8-0.6,1.9-0.6,3.5v9.2h-5.1V30.2h4.8v3.4c0.7-1.3,1.4-2.2,2-2.6
	c1-0.8,2.2-1.2,3.7-1.2C112.3,29.7,112.3,29.7,112.4,29.8L112.4,29.8z"/>
<path id="path9669" inkscape:connector-curvature="0" class="st0" d="M123.4,37.8c1-0.1,1.7-0.3,2-0.5c0.7-0.3,1.1-0.8,1.1-1.4
	c0-0.8-0.3-1.4-0.8-1.6c-0.5-0.3-1.3-0.5-2.5-0.5s-2.1,0.3-2.6,0.9c-0.4,0.5-0.6,1.1-0.8,1.8h-4.9c0.1-1.7,0.6-3.1,1.4-4.2
	c1.3-1.7,3.7-2.5,6.9-2.5c2.1,0,4.1,0.5,5.7,1.3c1.6,0.8,2.5,2.4,2.5,4.7v8.9c0,0.6,0,1.4,0,2.2c0,0.7,0.1,1.1,0.3,1.4
	c0.1,0.2,0.4,0.5,0.8,0.6v0.8H127c-0.1-0.4-0.2-0.8-0.3-1.1c-0.1-0.4-0.1-0.8-0.1-1.2c-0.7,0.8-1.5,1.4-2.4,2c-1.1,0.6-2.3,1-3.7,1
	c-1.7,0-3.2-0.5-4.4-1.5c-1.1-1-1.7-2.4-1.7-4.3c0-2.4,0.9-4.1,2.8-5.2c1.1-0.6,2.5-1,4.5-1.3L123.4,37.8z M126.5,40.1
	c-0.3,0.2-0.7,0.4-1,0.5s-0.8,0.2-1.3,0.4l-1.1,0.2c-1.1,0.2-1.9,0.5-2.3,0.7c-0.8,0.5-1.2,1.2-1.2,2.2c0,0.9,0.2,1.5,0.8,1.9
	c0.4,0.4,1.1,0.6,1.8,0.6c1.1,0,2.1-0.3,3.1-1c0.9-0.7,1.4-1.8,1.4-3.5L126.5,40.1L126.5,40.1z"/>
<path id="path9671" inkscape:connector-curvature="0" class="st0" d="M147.4,37.1c-0.1-0.8-0.3-1.4-0.7-2c-0.6-0.8-1.4-1.2-2.6-1.2
	c-1.7,0-2.8,0.8-3.5,2.5c-0.3,0.9-0.5,2.1-0.5,3.6c0,1.4,0.1,2.5,0.5,3.5c0.6,1.6,1.7,2.4,3.5,2.4c1.2,0,2-0.3,2.5-1
	s0.8-1.5,0.9-2.5h5.2c-0.1,1.6-0.7,3-1.6,4.3c-1.6,2.2-3.9,3.3-7,3.3c-3.2,0-5.4-0.9-6.9-2.8c-1.5-1.9-2.2-4.3-2.2-7.2
	c0-3.3,0.8-5.9,2.4-7.7c1.6-1.9,3.8-2.8,6.8-2.8c2.4,0,4.4,0.5,5.9,1.7c1.5,1.1,2.5,3,2.8,5.8L147.4,37.1z"/>
<path id="path9673" inkscape:connector-curvature="0" class="st0" d="M154.3,34v-3.6h2.7V25h5v5.4h3.1V34H162v10.2
	c0,0.8,0.1,1.3,0.3,1.5s0.8,0.3,1.9,0.3c0.1,0,0.3,0,0.5,0c0.1,0,0.4,0,0.5,0v3.8l-2.5,0.1c-2.4,0.1-4.1-0.3-4.9-1.3
	c-0.6-0.6-0.8-1.5-0.8-2.7V34H154.3z"/>
<path id="path9675" inkscape:connector-curvature="0" class="st0" d="M173.6,27.9h-5.1v-4.6h5.1V27.9z M168.4,30.2h5.1v19.3h-5.1
	V30.2z"/>
<path id="path9677" inkscape:connector-curvature="0" class="st0" d="M190,30.2h5.4l-7,19.3h-5.3l-6.9-19.3h5.7l4.1,14.3L190,30.2z"
	/>
<path id="path9679" inkscape:connector-curvature="0" class="st0" d="M210.2,30.6c1.3,0.6,2.5,1.6,3.4,2.8c0.8,1.1,1.3,2.5,1.6,4
	c0.1,0.9,0.2,2.2,0.1,3.8h-14.1c0.1,1.9,0.8,3.3,2,4.1C204,45.7,205,46,206,46c1.1,0,2.1-0.3,2.8-0.9c0.4-0.3,0.7-0.8,1-1.4h5.2
	c-0.1,1.1-0.8,2.3-1.9,3.5c-1.7,1.9-4.1,2.8-7.3,2.8c-2.5,0-4.9-0.8-6.8-2.4c-1.9-1.6-2.9-4.2-2.9-7.7c0-3.4,0.9-5.9,2.7-7.7
	s4.1-2.7,6.9-2.7C207.4,29.7,208.9,30,210.2,30.6L210.2,30.6z M202.6,34.9c-0.8,0.8-1.2,1.7-1.4,3h8.7c-0.1-1.4-0.5-2.3-1.3-3.1
	c-0.8-0.7-1.8-1.1-3-1.1C204.4,33.8,203.4,34.2,202.6,34.9z"/>
<path id="path9681" inkscape:connector-curvature="0" class="st0" d="M218.6,23.5h11.2c3.1,0,5.2,0.9,6.5,2.7
	c0.8,1.1,1.1,2.3,1.1,3.8c0,1.6-0.4,3-1.4,4.1c-0.5,0.5-1.2,1-2.1,1.5c1.3,0.5,2.3,1.1,3,1.7c1.2,1.1,1.7,2.7,1.7,4.7
	c0,1.6-0.5,3.2-1.6,4.6c-1.6,2-4.1,3.1-7.6,3.1h-11.1V23.5H218.6z M228.6,34.5c1.5,0,2.7-0.2,3.5-0.6c1.3-0.7,1.9-1.8,1.9-3.5
	s-0.7-2.9-2.1-3.5c-0.8-0.3-1.9-0.5-3.5-0.5H222v8.1H228.6z M229.8,46.5c2.2,0,3.8-0.6,4.7-1.9c0.6-0.8,0.9-1.7,0.9-2.9
	c0-1.9-0.8-3.2-2.6-3.9c-0.9-0.4-2.1-0.5-3.6-0.5h-7v9.2L229.8,46.5z"/>
<path id="path9683" inkscape:connector-curvature="0" class="st0" d="M242.6,30.5h3v3.3c0.2-0.7,0.8-1.4,1.8-2.3
	c1-0.9,2.1-1.4,3.4-1.4c0.1,0,0.1,0,0.3,0c0.1,0,0.4,0,0.7,0.1v3.4c-0.2,0-0.4-0.1-0.5-0.1s-0.3,0-0.5,0c-1.6,0-2.8,0.5-3.7,1.6
	s-1.3,2.2-1.3,3.6v10.9h-3.2V30.5z"/>
<path id="path9685" inkscape:connector-curvature="0" class="st0" d="M268.2,32.4c1.6,1.7,2.5,4.1,2.5,7.2c0,3.1-0.8,5.6-2.2,7.6
	c-1.5,2-3.8,3-6.9,3c-2.6,0-4.6-0.9-6.1-2.6c-1.5-1.8-2.3-4.1-2.3-7.1c0-3.2,0.8-5.7,2.4-7.6c1.6-1.9,3.8-2.9,6.4-2.9
	C264.4,30,266.5,30.8,268.2,32.4L268.2,32.4z M266.2,45.1c0.8-1.6,1.2-3.4,1.2-5.3c0-1.8-0.3-3.2-0.8-4.3c-0.9-1.7-2.4-2.6-4.6-2.6
	c-1.9,0-3.3,0.8-4.2,2.2c-0.9,1.5-1.4,3.3-1.4,5.4c0,2,0.5,3.7,1.4,5c0.9,1.4,2.2,2,4.2,2C264,47.5,265.4,46.6,266.2,45.1z"/>
<path id="path9687" inkscape:connector-curvature="0" class="st0" d="M274.3,23.5h3.1v15.1l8.2-8.1h4l-7.3,7.1l7.7,11.9h-4l-6-9.7
	l-2.6,2.5v7.1h-3.1L274.3,23.5z"/>
<path id="path9689" inkscape:connector-curvature="0" class="st0" d="M303.3,31c1.3,0.6,2.2,1.4,2.8,2.5c0.6,1,1.1,2.1,1.3,3.4
	c0.2,0.9,0.3,2.2,0.3,4.2h-13.8c0.1,2,0.5,3.5,1.4,4.7c0.8,1.2,2.2,1.7,3.9,1.7c1.6,0,3-0.5,4-1.7c0.5-0.7,1-1.4,1.2-2.2h3.2
	c-0.1,0.7-0.4,1.5-0.8,2.3c-0.5,0.8-1,1.6-1.6,2.1c-1,1-2.2,1.6-3.6,1.9c-0.8,0.2-1.7,0.3-2.6,0.3c-2.3,0-4.4-0.8-6-2.6
	c-1.6-1.7-2.5-4.1-2.5-7.2c0-3.1,0.8-5.5,2.5-7.4c1.6-1.9,3.8-2.9,6.5-2.9C300.7,30.1,302,30.4,303.3,31L303.3,31z M304.5,38.5
	c-0.1-1.4-0.5-2.5-0.9-3.3c-0.9-1.6-2.3-2.3-4.4-2.3c-1.4,0-2.7,0.5-3.7,1.6c-1,1-1.5,2.4-1.6,4.1L304.5,38.5z"/>
<path id="path9691" inkscape:connector-curvature="0" class="st0" d="M311.5,30.5h3v3.3c0.2-0.7,0.8-1.4,1.8-2.3
	c1-0.9,2.1-1.4,3.4-1.4c0.1,0,0.1,0,0.3,0c0.1,0,0.4,0,0.8,0.1v3.4c-0.2,0-0.4-0.1-0.5-0.1s-0.3,0-0.5,0c-1.6,0-2.8,0.5-3.7,1.6
	c-0.9,1.1-1.3,2.2-1.3,3.6v10.9h-3.2L311.5,30.5L311.5,30.5z"/>
<path id="path9693" inkscape:connector-curvature="0" class="st0" d="M325.5,43.6c0.1,1.1,0.4,1.9,0.8,2.5c0.8,1.1,2.2,1.6,4.3,1.6
	c1.2,0,2.2-0.2,3.2-0.8c0.9-0.5,1.4-1.3,1.4-2.4c0-0.8-0.4-1.4-1.1-1.9c-0.5-0.2-1.4-0.5-2.8-0.9l-2.6-0.7c-1.6-0.4-2.8-0.8-3.7-1.4
	c-1.4-0.9-2.1-2-2.1-3.6c0-1.8,0.7-3.2,1.9-4.3c1.3-1.1,3.1-1.7,5.3-1.7c2.9,0,5,0.8,6.3,2.6c0.8,1,1.2,2.2,1.2,3.5h-3
	c-0.1-0.8-0.3-1.4-0.8-2c-0.8-0.8-2-1.3-3.9-1.3c-1.2,0-2.2,0.2-2.8,0.7c-0.6,0.5-1,1-1,1.8s0.4,1.5,1.3,1.9
	c0.4,0.3,1.2,0.5,2.1,0.8l2.2,0.5c2.3,0.5,3.9,1.1,4.7,1.6c1.3,0.8,1.9,2.1,1.9,3.8s-0.7,3.2-1.9,4.4c-1.3,1.2-3.3,1.9-5.9,1.9
	c-2.9,0-4.9-0.7-6.1-2s-1.8-2.9-2-4.8L325.5,43.6L325.5,43.6z"/>
<polygon id="polygon9702" class="st0" points="1.4,49.5 1.4,26.1 22.7,49.5 "/>
<ellipse id="circle9704" class="st0" cx="19.7" cy="31.8" rx="6.4" ry="6.4"/>
<polygon id="polygon9706" class="st0" points="1.4,26.1 1.4,49.5 22.7,1.4 "/>
</svg>
