<?xml version="1.0" encoding="UTF-8"?><svg id="Layer_1" xmlns="http://www.w3.org/2000/svg" viewBox="0 0 666.67 666.67"><defs><style>.cls-1{fill:#fff;stroke-width:0px;}</style></defs><path class="cls-1" d="m633.33,233.33h-266.67v-66.67c0-55.23,44.77-100,100-100,18.41,0,33.33-14.92,33.33-33.33S485.08,0,466.67,0c-68.29.14-129.58,41.92-154.67,105.43C253.48,29.43,145.77,12.41,66.67,66.67c0,0,59.77,148.67,235.33,80.37-1.07,6.5-1.74,13.05-2,19.63v66.67H33.33c-18.41,0-33.33,14.92-33.33,33.33v366.67c0,18.41,14.92,33.33,33.33,33.33h600c18.41,0,33.33-14.92,33.33-33.33v-366.67c0-18.41-14.92-33.33-33.33-33.33ZM66.67,600v-100c55.23,0,100,44.77,100,100h-100Zm0-200v-100h100c0,55.23-44.77,100-100,100Zm266.67,100c-36.82,0-66.67-29.85-66.67-66.67s29.85-66.67,66.67-66.67,66.67,29.85,66.67,66.67-29.85,66.67-66.67,66.67Zm266.67,100h-100c0-55.23,44.77-100,100-100v100Zm0-200c-55.23,0-100-44.77-100-100h100v100Z"/></svg>