<svg width="221" height="236" viewBox="0 0 221 236" fill="none" xmlns="http://www.w3.org/2000/svg">
<path d="M220.442 176.563C210.029 194.777 194.949 209.886 176.754 220.333C158.559 230.779 137.908 236.186 116.928 235.995C95.9486 235.805 75.399 230.024 57.3969 219.249C39.3948 208.473 24.5911 193.093 14.5111 174.693C4.43108 156.292 -0.56072 135.537 0.0500066 114.565C0.660733 93.5935 6.8519 73.1638 17.9856 55.3811C29.1193 37.5984 44.793 23.1058 63.3916 13.3963C81.9903 3.6869 102.841 -0.888182 123.797 0.142468L122.686 22.73C105.747 21.8969 88.8916 25.5952 73.8574 33.4438C58.8232 41.2924 46.1534 53.0075 37.1535 67.3821C28.1536 81.7567 23.149 98.271 22.6553 115.223C22.1616 132.176 26.1967 148.953 34.3449 163.827C42.493 178.701 54.4596 191.134 69.0116 199.844C83.5636 208.554 100.175 213.227 117.134 213.381C134.093 213.535 150.786 209.165 165.494 200.72C180.202 192.276 192.392 180.063 200.809 165.339L220.442 176.563Z" fill="#22C55E"/>
</svg>
