<?xml version="1.0" encoding="utf-8"?>
<!-- Generator: Adobe Illustrator 27.9.0, SVG Export Plug-In . SVG Version: 6.00 Build 0)  -->
<svg version="1.1" id="Layer_1" xmlns="http://www.w3.org/2000/svg" xmlns:xlink="http://www.w3.org/1999/xlink" x="0px" y="0px"
	 viewBox="0 0 800 800" style="enable-background:new 0 0 800 800;" xml:space="preserve">
<style type="text/css">
	.st0{fill:#737373;}
</style>
<path class="st0" d="M400,0C234.3,0,100,134.3,100,300c0,65.2,21.4,125.1,56.9,174.1c0.6,1.2,0.7,2.5,1.5,3.6l200,300
	c9.3,13.9,24.9,22.3,41.6,22.3c16.7,0,32.3-8.3,41.6-22.3l200-300c0.7-1.1,0.8-2.4,1.5-3.6c35.6-49,56.9-108.9,56.9-174.1
	C700,134.3,565.7,0,400,0z M400,400c-55.2,0-100-44.8-100-100s44.8-100,100-100s100,44.8,100,100S455.2,400,400,400z"/>
</svg>
