<?xml version="1.0" encoding="UTF-8"?><svg id="Layer_1" xmlns="http://www.w3.org/2000/svg" viewBox="0 0 763.67 795.33"><defs><style>.cls-1,.cls-2{stroke-miterlimit:333.33;}.cls-1,.cls-2,.cls-3{fill:none;stroke:#d4d4d4;}.cls-1,.cls-3{stroke-linecap:round;stroke-width:63.67px;}.cls-2{stroke-width:63.67px;}.cls-3{stroke-linejoin:round;}</style></defs><path class="cls-3" d="m286.5,286.17h111.33c26.33,0,47.67-21.34,47.67-47.67h0c0-26.33-21.34-47.67-47.67-47.67h-33.33c-26.33,0-47.67-21.34-47.67-47.67h0c0-26.38,21.29-47.82,47.67-48h111.33"/><line class="cls-1" x1="381.83" y1="31.83" x2="381.83" y2="95.17"/><line class="cls-1" x1="381.83" y1="286.17" x2="381.83" y2="349.83"/><circle class="cls-2" cx="572.83" cy="508.83" r="95.33"/><path class="cls-2" d="m415.17,795.17v-31.67c0-87.81,71.19-159,159-159,.11,0,.22,0,.33,0h0c87.16.91,157.34,71.83,157.33,159v31.67"/><circle class="cls-2" cx="190.83" cy="508.83" r="95.33"/><path class="cls-2" d="m31.83,795.17v-31.67c0-87.81,71.19-159,159-159h0c87.81-.18,159.15,70.85,159.33,158.67,0,.11,0,.22,0,.33v31.67"/></svg>