<?xml version="1.0" encoding="UTF-8"?><svg id="Layer_1" xmlns="http://www.w3.org/2000/svg" viewBox="0 0 280 89.27"><defs><style>.cls-1{fill:none;stroke:#fff;stroke-miterlimit:10;stroke-width:3px;}.cls-2{fill:#fff;}.cls-2,.cls-3,.cls-4{stroke-width:0px;}.cls-3{fill:#0ea5e9;}.cls-4{fill:#22c55e;}</style></defs><rect class="cls-4" x="0" width="20.79" height="70" rx="6" ry="6"/><path class="cls-3" d="m14.79,78.09H6C2.69,78.09,0,75.4,0,72.09v-39.09s20.79,0,20.79,0v39.09c0,3.31-2.69,6-6,6Z"/><rect class="cls-4" x="51.84" y="19.27" width="20.79" height="70" rx="6" ry="6"/><path class="cls-3" d="m66.63,89.27h-8.79c-3.31,0-6-2.69-6-6v-22h20.79v22c0,3.31-2.69,6-6,6Z"/><rect class="cls-4" x="103.68" y="12.27" width="20.79" height="70" rx="6" ry="6"/><path class="cls-3" d="m118.48,85.81h-8.79c-3.31,0-6-2.69-6-6v-28.61h20.79v28.61c0,3.31-2.69,6-6,6Z"/><rect class="cls-4" x="155.52" y=".27" width="20.79" height="70" rx="6" ry="6"/><path class="cls-3" d="m171.32,79.88h-10.79c-2.76,0-5-2.24-5-5v-36.61h20.79v36.61c0,2.76-2.24,5-5,5Z"/><rect class="cls-4" x="207.37" y="6.27" width="20.79" height="70" rx="6" ry="6"/><path class="cls-3" d="m222.16,82.85h-8.79c-3.31,0-6-2.69-6-6v-28.61h20.79v28.61c0,3.31-2.69,6-6,6Z"/><rect class="cls-4" x="259.21" y="12.27" width="20.79" height="66" rx="6" ry="6"/><path class="cls-3" d="m274,83.83h-8.79c-3.31,0-6-2.69-6-6v-18.56h20.79v18.56c0,3.31-2.69,6-6,6Z"/><circle class="cls-2" cx="10.5" cy="34.77" r="2.5"/><circle class="cls-2" cx="62.5" cy="55.77" r="2.5"/><circle class="cls-2" cx="166.5" cy="38.77" r="2.5"/><circle class="cls-2" cx="218.5" cy="44.77" r="2.5"/><circle class="cls-2" cx="270.5" cy="48.77" r="2.5"/><circle class="cls-2" cx="114.5" cy="48.77" r="2.5"/><polyline class="cls-1" points="10.5 34.77 62.5 55.77 114.5 48.77 166.5 38.77 218.5 44.77 270.5 48.77"/></svg>