<?xml version="1.0" encoding="UTF-8"?><svg id="Layer_1" xmlns="http://www.w3.org/2000/svg" viewBox="0 0 800 600"><defs><style>.cls-1{fill-rule:evenodd;}.cls-1,.cls-2{fill:#878787;stroke-width:0px;}</style></defs><path class="cls-2" d="m350,600s-50,0-50-50,50-200,250-200,250,150,250,200-50,50-50,50h-400Zm200-300c82.8,0,150-67.2,150-150S632.8,0,550,0s-150,67.2-150,150,67.2,150,150,150Z"/><path class="cls-1" d="m260.8,600c-7.4-15.6-11.1-32.7-10.8-50,0-67.8,34-137.5,96.8-186-31.3-9.7-64-14.4-96.8-14C50,350,0,500,0,550s50,50,50,50h210.8Z"/><path class="cls-2" d="m225,300c69,0,125-56,125-125s-56-125-125-125-125,56-125,125,56,125,125,125Z"/></svg>