<?xml version="1.0" encoding="utf-8"?>
<!-- Generator: Adobe Illustrator 27.9.0, SVG Export Plug-In . SVG Version: 6.00 Build 0)  -->
<svg version="1.1" id="Layer_1" xmlns="http://www.w3.org/2000/svg" xmlns:xlink="http://www.w3.org/1999/xlink" x="0px" y="0px"
	 viewBox="0 0 800 800" style="enable-background:new 0 0 800 800;" xml:space="preserve">
<style type="text/css">
	.st0{fill:#FFFFFF;}
	.st1{fill-rule:evenodd;clip-rule:evenodd;fill:#FFFFFF;}
</style>
<path class="st0" d="M350,700c0,0-50,0-50-50s50-200,250-200s250,150,250,200s-50,50-50,50H350z M550,400c82.8,0,150-67.2,150-150
	s-67.2-150-150-150s-150,67.2-150,150S467.2,400,550,400z"/>
<path class="st1" d="M260.8,700c-7.4-15.6-11.1-32.7-10.8-50c0-67.8,34-137.5,96.8-186c-31.3-9.7-64-14.4-96.8-14
	C50,450,0,600,0,650s50,50,50,50H260.8z"/>
<path class="st0" d="M225,400c69,0,125-56,125-125s-56-125-125-125s-125,56-125,125S156,400,225,400z"/>
</svg>
