<svg width="221" height="236" viewBox="0 0 221 236" fill="none" xmlns="http://www.w3.org/2000/svg">
<path d="M220.442 176.563C210.029 194.777 194.949 209.886 176.754 220.333C158.559 230.779 137.908 236.186 116.928 235.995C95.9486 235.805 75.399 230.024 57.3969 219.249C39.3948 208.473 24.5911 193.093 14.5111 174.693C4.43108 156.292 -0.560722 135.537 0.0500055 114.565C0.660731 93.5935 6.8519 73.1638 17.9856 55.3811C29.1193 37.5984 44.793 23.1058 63.3916 13.3963C81.9903 3.6869 102.841 -0.888182 123.797 0.142468L122.93 17.7595C105.107 16.8829 87.373 20.7741 71.5544 29.0322C55.7358 37.2903 42.405 49.6167 32.9355 64.7413C23.466 79.8658 18.2003 97.2417 17.6809 115.079C17.1614 132.915 21.4071 150.568 29.9804 166.218C38.5536 181.868 51.1445 194.95 66.4557 204.114C81.7669 213.279 99.2448 218.195 117.088 218.358C134.932 218.52 152.496 213.921 167.972 205.036C183.447 196.151 196.273 183.301 205.129 167.809L220.442 176.563Z" fill="#6366F1" fill-opacity="0.8"/>
</svg>
