<?xml version="1.0" encoding="UTF-8"?><svg id="Layer_1" xmlns="http://www.w3.org/2000/svg" viewBox="0 0 801.38 599.95"><defs><style>.cls-1{fill:#fff;stroke-width:0px;}</style></defs><path class="cls-1" d="m796.93,187.5c-3.05-10-8.25-18.55-15-25.5-5.25-5.65-12.05-9.85-19.7-11.9,3.7,5.85,7.05,12.6,9.55,19.8,2.8,7.35,4.6,15.2,5.15,23.35.4,3.35.6,6.9.6,10.5s-.2,7.15-.6,10.7c-1.75-5.75-4.15-10.4-7.1-14.6-6.15-8.3-14.4-14.95-24-19.15-5.95-2.65-12.4-4.1-19.2-4.1-17.3,0-32.4,9.3-40.55,23.2-2.5,4.1-4.5,8.55-6,13.3-59.1-98.4-165.45-163.55-287.05-163.55-6.2,0-12.35.15-18.45.5-38.15.05-75.85,5.5-111.55,15.65C259.93,44,231.43,0,100.43,0l40,125.5c-25.35,20.55-46.35,45.25-62.35,73.25L.43,200s-8.5,200,50,200h27c18.95,31.9,43.4,58.55,72.25,79.45l.75,120.5h54c65.5,0,96,0,96-37.5v-19.5c22.55,4.4,48.5,6.95,75,6.95s52.45-2.55,77.55-7.35l-2.55,19.9c0,37.5,31,37.5,97,37.5h53v-119.5c46.6-32.55,80.65-80.25,95.15-135.85,2.85-1.35,5.7-1.2,8.6-1.2s5.75-.15,8.6-.5c12.55-2.3,24-7.2,33.95-14.15,13.3-9.4,23.7-22.7,29.55-38.25,1.4-4.65,2.45-9.55,3.15-14.6l.05-.5c11.05-13.1,18.6-29.5,20.95-47.55.6-4.2.95-8.55.95-12.95,0-9.85-1.6-19.3-4.55-28.15l.1.75Zm-621,0c20.7,0,37.5,16.8,37.5,37.5s-16.8,37.5-37.5,37.5-37.5-16.8-37.5-37.5,16.8-37.5,37.5-37.5h0Zm118.5-37.5c-2.3.75-4.95,1.2-7.7,1.2-9.7,0-18.1-5.5-22.25-13.55-.65-1.9-.95-3.9-.95-6,0-9.5,6.8-17.4,15.75-19.15,28.55-7.05,61.2-11.05,94.8-11.05,1.9,0,3.75,0,5.65.05,1.3,0,3.2-.05,5.05-.05,33.6,0,66.2,4,97.45,11.6,6.3,1.2,13.1,9.1,13.1,18.6,0,2.1-.35,4.1-.95,5.95-3.5,6.45-9.85,11.15-17.3,12.35h-7.65c-25.6-6.35-55.05-10-85.3-10h-4.45c-30.25,0-59.65,3.65-87.8,10.55l2.55-.5Zm435,146.5c-6.5,4.75-14.25,8.25-22.65,9.95l-6.35.55v-22.5c8.25,6.25,18.7,10,30,10h1.05l-2.05,2Zm4-34c-.9.15-2,.2-3.05.2-8.8,0-16.35-5.15-19.9-12.6-2.2-4.2-3.45-9-3.45-14.15s1.25-9.95,3.5-14.15c2.95-4.1,7.85-6.9,13.45-6.9,2.95,0,5.65.75,8.05,2.1,9.05,3.5,15.4,12.2,15.4,22.4v.05c.45,3.1.7,6.65.7,10.25s-.25,7.15-.75,10.65c-3.3.6-7.2,1.2-11.2,1.2-.95,0-1.95-.05-2.9-.1l.15,1.05Z"/></svg>