<?xml version="1.0" encoding="UTF-8"?><svg id="Layer_1" xmlns="http://www.w3.org/2000/svg" viewBox="0 0 733.33 666.67"><defs><style>.cls-1{fill:none;stroke:#fff;stroke-linecap:round;stroke-linejoin:round;stroke-width:66.67px;}</style></defs><path class="cls-1" d="m133.33,366.67c0,54.95,22.16,104.72,58.02,140.87,3.46,3.48,5.19,5.23,6.21,6.9.97,1.6,1.54,2.98,1.98,4.8.46,1.91.46,4.08.46,8.42v79.01c0,9.33,0,14,1.82,17.57,1.6,3.14,4.15,5.69,7.28,7.28,3.57,1.82,8.23,1.82,17.57,1.82h63.33c9.33,0,14,0,17.57-1.82,3.14-1.6,5.69-4.15,7.28-7.28,1.82-3.57,1.82-8.23,1.82-17.57v-13.33c0-9.33,0-14,1.82-17.57,1.6-3.14,4.15-5.69,7.28-7.28,3.57-1.82,8.23-1.82,17.57-1.82h46.67c9.34,0,14,0,17.57,1.82,3.14,1.6,5.69,4.15,7.28,7.28,1.82,3.57,1.82,8.23,1.82,17.57v13.33c0,9.33,0,14,1.82,17.57,1.6,3.14,4.15,5.69,7.28,7.28,3.57,1.82,8.23,1.82,17.57,1.82h63.34c9.33,0,14,0,17.57-1.82,3.14-1.6,5.69-4.15,7.28-7.28,1.82-3.57,1.82-8.23,1.82-17.57v-32.52c0-6.73,0-10.1.96-12.81.92-2.59,2.08-4.4,4.04-6.33,2.05-2.01,5.52-3.62,12.46-6.84,32.74-15.2,60.68-39,80.91-68.49,3.56-5.19,5.34-7.78,7.24-9.31,1.82-1.47,3.45-2.32,5.68-2.99,2.34-.7,5.12-.7,10.67-.7h18.04c9.33,0,14,0,17.57-1.82,3.14-1.6,5.69-4.15,7.28-7.28,1.82-3.57,1.82-8.23,1.82-17.57v-113.81c0-8.88,0-13.33-1.65-16.76-1.64-3.4-4.38-6.14-7.78-7.78-3.43-1.65-7.87-1.65-16.76-1.65-6.43,0-9.65,0-12.24-.87-2.79-.94-4.75-2.19-6.78-4.33-1.88-1.99-3.41-5.31-6.48-11.94-9.85-21.31-23.34-40.59-39.67-57.05-3.46-3.49-5.19-5.23-6.21-6.91-.98-1.6-1.54-2.98-1.98-4.8-.46-1.91-.46-4.08-.46-8.43v-36.99c0-12,0-18-2.5-22.04-2.19-3.53-5.62-6.12-9.62-7.26-4.57-1.29-10.34.35-21.88,3.65l-79.08,22.6c-1.35.38-2.02.58-2.7.71-.61.12-1.22.21-1.84.26-.69.06-1.39.06-2.79.06h-14.3m-331.97,200c0-76.8,43.29-143.49,106.8-177m-106.8,177h-33.33c-36.82,0-66.67-29.85-66.67-66.67,0-24.68,13.41-46.22,33.33-57.75m400-92.25c0,64.43-52.23,116.67-116.67,116.67s-116.67-52.23-116.67-116.67,52.23-116.67,116.67-116.67,116.67,52.23,116.67,116.67Z"/></svg>