<?xml version="1.0" encoding="utf-8"?>
<!-- Generator: Adobe Illustrator 27.9.0, SVG Export Plug-In . SVG Version: 6.00 Build 0)  -->
<svg version="1.1" id="Layer_1" xmlns="http://www.w3.org/2000/svg" xmlns:xlink="http://www.w3.org/1999/xlink" x="0px" y="0px"
	 viewBox="0 0 733.3 666.7" style="enable-background:new 0 0 733.3 666.7;" xml:space="preserve">
<style type="text/css">
	.st0{fill:none;stroke:#E5E5E5;stroke-width:66.67;stroke-linecap:round;stroke-linejoin:round;}
</style>
<path class="st0" d="M133.3,366.7c0,55,22.2,104.7,58,140.9c3.5,3.5,5.2,5.2,6.2,6.9c1,1.6,1.5,3,2,4.8c0.5,1.9,0.5,4.1,0.5,8.4v79
	c0,9.3,0,14,1.8,17.6c1.6,3.1,4.1,5.7,7.3,7.3c3.6,1.8,8.2,1.8,17.6,1.8H290c9.3,0,14,0,17.6-1.8c3.1-1.6,5.7-4.2,7.3-7.3
	c1.8-3.6,1.8-8.2,1.8-17.6v-13.3c0-9.3,0-14,1.8-17.6c1.6-3.1,4.1-5.7,7.3-7.3c3.6-1.8,8.2-1.8,17.6-1.8H390c9.3,0,14,0,17.6,1.8
	c3.1,1.6,5.7,4.2,7.3,7.3c1.8,3.6,1.8,8.2,1.8,17.6v13.3c0,9.3,0,14,1.8,17.6c1.6,3.1,4.1,5.7,7.3,7.3c3.6,1.8,8.2,1.8,17.6,1.8
	h63.3c9.3,0,14,0,17.6-1.8c3.1-1.6,5.7-4.2,7.3-7.3c1.8-3.6,1.8-8.2,1.8-17.6v-32.5c0-6.7,0-10.1,1-12.8c0.9-2.6,2.1-4.4,4-6.3
	c2-2,5.5-3.6,12.5-6.8c32.7-15.2,60.7-39,80.9-68.5c3.6-5.2,5.3-7.8,7.2-9.3c1.8-1.5,3.5-2.3,5.7-3c2.3-0.7,5.1-0.7,10.7-0.7h18
	c9.3,0,14,0,17.6-1.8c3.1-1.6,5.7-4.1,7.3-7.3c1.8-3.6,1.8-8.2,1.8-17.6V326.2c0-8.9,0-13.3-1.7-16.8c-1.6-3.4-4.4-6.1-7.8-7.8
	c-3.4-1.6-7.9-1.6-16.8-1.6c-6.4,0-9.7,0-12.2-0.9c-2.8-0.9-4.8-2.2-6.8-4.3c-1.9-2-3.4-5.3-6.5-11.9c-9.8-21.3-23.3-40.6-39.7-57.1
	c-3.5-3.5-5.2-5.2-6.2-6.9c-1-1.6-1.5-3-2-4.8c-0.5-1.9-0.5-4.1-0.5-8.4v-37c0-12,0-18-2.5-22c-2.2-3.5-5.6-6.1-9.6-7.3
	c-4.6-1.3-10.3,0.4-21.9,3.6l-79.1,22.6c-1.4,0.4-2,0.6-2.7,0.7c-0.6,0.1-1.2,0.2-1.8,0.3c-0.7,0.1-1.4,0.1-2.8,0.1h-14.3
	 M133.3,366.7c0-76.8,43.3-143.5,106.8-177 M133.3,366.7H100c-36.8,0-66.7-29.9-66.7-66.7c0-24.7,13.4-46.2,33.3-57.8 M466.7,150
	c0,64.4-52.2,116.7-116.7,116.7S233.3,214.4,233.3,150S285.6,33.3,350,33.3S466.7,85.6,466.7,150L466.7,150z"/>
</svg>
