<?xml version="1.0" encoding="UTF-8"?><svg id="Layer_1" xmlns="http://www.w3.org/2000/svg" viewBox="0 0 666.67 666.67"><defs><style>.cls-1{fill:#22c55e;stroke-width:0px;}</style></defs><path class="cls-1" d="m495.32,624.73c-49.08,27.34-104.5,41.94-161.98,41.94C149.24,666.67,0,517.43,0,333.33S149.24,0,333.33,0s333.33,149.24,333.33,333.33c0,57.49-14.6,112.9-41.94,161.98l11.76,141.17-141.17-11.76Zm-15.6-68.2l83.79,6.98-6.98-83.79,5.54-9.22c24.7-41.09,37.93-88.12,37.93-137.17,0-147.28-119.39-266.67-266.67-266.67S66.67,186.06,66.67,333.33s119.39,266.67,266.67,266.67c49.05,0,96.08-13.23,137.17-37.93l9.22-5.54Zm-146.38-56.58c-18.42,0-33.34-14.92-33.34-33.33s14.93-33.33,33.34-33.33,33.34,14.92,33.34,33.33-14.93,33.33-33.34,33.33Zm33.32-99.94h-66.67v-33.33c0-24.58,12.76-43.32,32.58-59.04,5.96-4.73,7.76-5.92,18.55-12.76,9.62-6.1,15.53-16.62,15.53-28.19,0-18.41-14.92-33.33-33.33-33.33s-33.33,14.92-33.33,33.33h-66.67c0-55.23,44.77-100,100-100s100,44.77,100,100c0,34.65-17.8,66.3-46.51,84.5-8.44,5.35-9.47,6.03-12.81,8.68-5.47,4.34-7.35,7.1-7.35,6.82v33.33Z"/></svg>