<?xml version="1.0" encoding="UTF-8"?><svg id="Layer_1" xmlns="http://www.w3.org/2000/svg" xmlns:xlink="http://www.w3.org/1999/xlink" viewBox="0 0 114 38.14"><defs><style>.cls-1{fill:url(#linear-gradient);stroke-width:0px;}.cls-2,.cls-3,.cls-4{fill:none;stroke-linecap:round;stroke-linejoin:round;}.cls-2,.cls-4{stroke:#777;}.cls-3{stroke:#e05f5f;stroke-width:2px;}.cls-4{stroke-dasharray:0 0 1 3;}</style><linearGradient id="linear-gradient" x1="57" y1="35.16" x2="57" y2="-12.07" gradientTransform="translate(114) rotate(-180) scale(1 -1)" gradientUnits="userSpaceOnUse"><stop offset="0" stop-color="#e05f5f" stop-opacity="0"/><stop offset="1" stop-color="#e05f5f"/></linearGradient></defs><line class="cls-2" x1="1" y1="37.64" x2="1.5" y2="37.64"/><line class="cls-4" x1="4.5" y1="37.64" x2="111" y2="37.64"/><line class="cls-2" x1="112.5" y1="37.64" x2="113" y2="37.64"/><polyline class="cls-3" points="113 27.52 110.5 28.14 108.5 29.14 104.5 28.14 102.5 29.14 95.5 20.14 90.5 21.14 87.5 23.14 83.5 22.14 79.5 24.14 72.5 19.14 69.5 20.14 63.5 15.14 58.5 16.14 55.5 18.14 53.5 19.14 48.5 20.14 40.5 19.14 38.5 18.14 36.5 18.14 23.48 15.14 20.5 12.14 16.5 7.14 10.5 7.14 3.5 2.14 1 1"/><polygon class="cls-1" points="113 28.02 110.5 28.64 108.5 29.64 104.5 28.64 102.5 29.64 95.5 20.64 90.5 21.64 87.5 23.64 83.5 22.64 79.5 24.64 72.5 19.64 69.5 20.64 63.5 15.64 58.5 16.64 55.5 18.64 53.5 19.64 48.5 20.64 40.5 19.64 38.5 18.64 36.5 18.64 23.48 15.64 20.5 12.64 16.5 7.64 10.5 7.64 3.5 2.64 1 1.5 1 32.64 113 32.64 113 28.02"/></svg>