<?xml version="1.0" encoding="UTF-8"?><svg id="Layer_1" xmlns="http://www.w3.org/2000/svg" viewBox="0 0 641 451"><defs><style>.cls-1{fill:#e76a58;}.cls-1,.cls-2,.cls-3,.cls-4,.cls-5,.cls-6,.cls-7,.cls-8,.cls-9,.cls-10,.cls-11,.cls-12,.cls-13,.cls-14{fill-rule:evenodd;}.cls-1,.cls-2,.cls-15,.cls-16,.cls-4,.cls-17,.cls-18,.cls-5,.cls-7,.cls-8,.cls-9,.cls-10,.cls-11,.cls-13,.cls-14{stroke-width:0px;}.cls-2{fill:#81d154;}.cls-3{fill:#c1c1c1;stroke:#262626;}.cls-3,.cls-6,.cls-12{stroke-linecap:round;}.cls-15{fill:#646464;}.cls-16,.cls-6{fill:#e9e9e9;}.cls-4{fill:#ea4335;}.cls-17{fill:#494949;}.cls-18,.cls-7{fill:#fff;}.cls-5{fill:#4f4f4f;}.cls-6{stroke:#e9e9e9;}.cls-6,.cls-12{stroke-linejoin:round;}.cls-8{fill:#fec052;}.cls-9{fill:#fbbc05;}.cls-10{fill:#4285f4;}.cls-11{fill:#34a853;}.cls-12{stroke:#323639;}.cls-12,.cls-13{fill:#323639;}.cls-14{fill:#838383;}</style></defs><g id="A"><path class="cls-12" d="m.5,5.5s0-.01,0-.02c0-2.76,2.24-4.99,5-4.98h630s.01,0,.02,0c2.76,0,4.99,2.24,4.98,5v35H.5V5.5Z"/><path class="cls-12" d="m.5,40.5v410h640V40.5H.5Zm630,400H10.5V50.5h620v390Z"/><path class="cls-13" d="m90.5,15.5s0-.01,0-.02c0-2.76,2.24-4.99,5-4.98h150s.01,0,.02,0c2.76,0,4.99,2.24,4.98,5v25H90.5V15.5Z"/><path class="cls-10" d="m109.64,26.94c-.34.91-.96,1.67-1.77,2.19l2.61,1.99c1.21-1.07,2.06-2.53,2.38-4.18.09-.47.14-.96.14-1.44,0-.47-.04-.94-.13-1.39h-7.37v2.83h4.14,0Z"/><path class="cls-4" d="m105.5,20.98c-1.94,0-3.65,1.26-4.22,3.11l-2.5-1.92c1.22-2.47,3.77-4.16,6.72-4.16,1.89,0,3.62.69,4.94,1.84l-2.13,2.13c-.76-.62-1.74-1-2.8-1Z"/><path class="cls-9" d="m101.32,26.84c-.15-.45-.24-.94-.24-1.44,0-.44.07-.89.2-1.31l-2.5-1.92c-.5,1-.78,2.14-.78,3.34,0,1.13.25,2.25.74,3.27l2.58-1.93h0Z"/><path class="cls-11" d="m101.32,26.84c.61,1.78,2.29,2.98,4.18,2.98.88,0,1.69-.25,2.38-.69l2.61,1.99c-1.32,1.17-3.07,1.89-4.98,1.89-2.98,0-5.55-1.72-6.76-4.23l2.58-1.93h0Z"/><path class="cls-3" d="m.5,81.5h640v-1H.5v1Z"/><path class="cls-5" d="m231.5,40.5h14s.01,0,.02,0c2.76,0,4.99-2.24,4.98-5V15.5s0-.01,0-.02c0-2.76,2.24-4.99,5-4.98h150s.01,0,.02,0c2.76,0,4.99,2.24,4.98,5v20.02c0,2.76,2.24,4.99,5,4.98h225v40H.5v-40h231Z"/><path class="cls-6" d="m116.5,62.5s0,.03,0,.04c.01,5.51,4.49,9.97,10,9.96h464s.03,0,.04,0c5.51-.01,9.97-4.49,9.96-10v-4.04c-.01-5.51-4.49-9.97-10-9.96H126.5s-.03,0-.04,0c-5.51.01-9.97,4.49-9.96,10v4Z"/><path class="cls-7" d="m94.59,55.12c-1.28-.88-2.59-1.62-4.38-1.62-3.72,0-6.71,3.12-6.71,7s2.99,7,6.71,7c2.15,0,4.43-1.38,4.92-2.38-.13-1.11-.63-1.5-1.51-1.17-.86.55-1.96,1.5-3.5,1.5-2.86,0-4.87-2.02-4.87-5s1.89-5,4.75-5c3.33.22,3.53,1.43,4.38,2.76.71.44.99-.07.85-1.55l-.64-1.55Z"/><path class="cls-7" d="m96.82,60.2c.48.09.71-.18.68-.81l-.63-5c-.18-.68-.58-.78-1.18-.3l-3.73,3.15c-.58.41-.63.79-.15,1.13l5.01,1.83Zm32.2-35.33h-3.54v1.03h2.26v2.17c-.24.25-.54.43-.9.54-.36.11-.78.16-1.27.16-.85,0-1.53-.32-2.03-.96-.5-.64-.75-1.5-.75-2.58v-.79c0-1.14.23-2,.67-2.6s1.1-.9,1.96-.9c1.3,0,2.06.64,2.31,1.91h1.29c-.14-.95-.52-1.68-1.14-2.19-.62-.51-1.44-.77-2.46-.77-1.24,0-2.21.4-2.89,1.2-.69.8-1.03,1.93-1.03,3.38v.84c0,.9.18,1.68.52,2.36.34.68.81,1.21,1.43,1.57s1.32.55,2.12.55,1.48-.12,2.07-.35c.59-.23,1.05-.58,1.38-1.05v-3.54h0Z"/><path id="C" class="cls-7" d="m130.64,26.11c0,1.11.31,2.01.91,2.68.61.68,1.41,1.01,2.39,1.01.65,0,1.23-.15,1.73-.46.5-.31.89-.74,1.16-1.3.27-.55.4-1.18.4-1.88v-.09c0-1.12-.3-2.02-.91-2.7-.61-.68-1.41-1.01-2.4-1.01-.64,0-1.21.15-1.71.46-.5.31-.89.74-1.17,1.3-.28.56-.42,1.19-.42,1.9v.09h0Zm1.25.06c0-.9.19-1.59.56-2.07.38-.48.87-.72,1.48-.72.63,0,1.13.24,1.51.73.38.49.57,1.13.57,1.91,0,.88-.19,1.56-.56,2.05-.37.49-.87.73-1.5.73-.63,0-1.12-.24-1.5-.72-.37-.48-.56-1.12-.56-1.92h0Z"/><path id="C-2" class="cls-7" d="m138.47,26.11c0,1.11.31,2.01.91,2.68.61.68,1.41,1.01,2.39,1.01.65,0,1.23-.15,1.73-.46.5-.31.89-.74,1.16-1.3.27-.55.4-1.18.4-1.88v-.09c0-1.12-.3-2.02-.91-2.7-.61-.68-1.41-1.01-2.4-1.01-.64,0-1.21.15-1.71.46-.5.31-.89.74-1.17,1.3-.28.56-.42,1.19-.42,1.9v.09h0Zm1.25.06c0-.9.19-1.59.56-2.07.38-.48.87-.72,1.48-.72.63,0,1.13.24,1.51.73.38.49.57,1.13.57,1.91,0,.88-.19,1.56-.56,2.05-.37.49-.87.73-1.5.73-.63,0-1.12-.24-1.5-.72-.37-.48-.56-1.12-.56-1.92h0Z"/><path class="cls-7" d="m146.33,26.03c0,1.17.26,2.09.79,2.76.52.68,1.21,1.01,2.06,1.01.86,0,1.54-.28,2.03-.85v.62c0,.61-.17,1.08-.51,1.42-.34.34-.81.5-1.41.5-.77,0-1.42-.32-1.95-.97l-.64.74c.26.38.65.69,1.15.91.5.22,1.01.33,1.54.33.94,0,1.69-.27,2.24-.8s.83-1.27.83-2.19v-7h-1.13l-.06.8c-.5-.62-1.19-.93-2.07-.93s-1.56.33-2.08.99c-.52.66-.78,1.55-.78,2.67h0Zm1.25.14c0-.91.17-1.6.51-2.06.34-.46.81-.7,1.41-.7.76,0,1.33.34,1.71,1.03v3.27c-.37.7-.94,1.05-1.72,1.05-.6,0-1.07-.23-1.41-.69-.34-.46-.5-1.1-.5-1.91h0Zm6.85-6.67v10.18h1.24v-10.18h-1.24Zm6.24,10.31c1.22,0,2.13-.46,2.74-1.39l-.76-.58c-.23.29-.49.53-.8.7-.3.18-.68.26-1.11.26-.62,0-1.12-.22-1.52-.65-.4-.44-.61-1.01-.63-1.71h4.91v-.51c0-1.14-.26-2.02-.78-2.64-.52-.61-1.26-.92-2.2-.92-.58,0-1.11.16-1.6.47-.49.32-.88.75-1.15,1.31-.27.56-.41,1.19-.41,1.91v.23c0,1.07.31,1.92.93,2.56.62.64,1.42.96,2.4.96h0Zm-.15-6.43c.52,0,.93.17,1.23.51.3.34.47.83.51,1.45v.09h-3.63c.08-.65.29-1.15.63-1.51.34-.36.76-.54,1.26-.54h0Z"/><path id="D" class="cls-1" d="m22.5,27.5c3.88,0,7-3.12,7-7s-3.12-7-7-7-7,3.12-7,7,3.12,7,7,7Z"/><path id="D-2" class="cls-8" d="m42.5,27.5c3.88,0,7-3.12,7-7s-3.12-7-7-7-7,3.12-7,7,3.12,7,7,7Z"/><path id="D-3" class="cls-2" d="m62.5,27.5c3.88,0,7-3.12,7-7s-3.12-7-7-7-7,3.12-7,7,3.12,7,7,7Z"/><path class="cls-7" d="m424,32c0,.55.45,1,1,1s1-.45,1-1v-10c0-.55-.45-1-1-1s-1,.45-1,1v10Z"/><path class="cls-7" d="m420,26c-.55,0-1,.45-1,1s.45,1,1,1h10c.55,0,1-.45,1-1s-.45-1-1-1h-10Zm-18.71,5.71h0c.39.39,1.02.39,1.42,0,.39-.39.39-1.02,0-1.42l-8.5-8.5c-.39-.39-1.02-.39-1.42,0-.39.39-.39,1.02,0,1.42l8.5,8.5Z"/><path class="cls-7" d="m392.79,30.29c-.39.39-.39,1.02,0,1.42.39.39,1.02.39,1.42,0l8.5-8.5c.39-.39.39-1.02,0-1.42-.39-.39-1.02-.39-1.42,0l-8.5,8.5Z"/><path id="E" class="cls-7" d="m619.5,56.5c1.11,0,2-.89,2-2s-.89-2-2-2-2,.89-2,2,.89,2,2,2Z"/><path id="E-2" class="cls-7" d="m619.5,62.5c1.11,0,2-.89,2-2s-.89-2-2-2-2,.89-2,2,.89,2,2,2Z"/><path id="E-3" class="cls-7" d="m619.5,68.5c1.11,0,2-.89,2-2s-.89-2-2-2-2,.89-2,2,.89,2,2,2Z"/><path class="cls-15" d="m583.69,62.32l1.14,5.18-4.33-2.75-4.33,2.75,1.15-5.18-3.82-3.49,5.03-.45,1.97-4.89,1.97,4.88,5.03.46-3.82,3.49Z"/><path class="cls-16" d="m585.09,59.66l-2.5,2.28.75,3.4-2.84-1.8-2.84,1.8.75-3.4-2.51-2.28,3.3-.29,1.29-3.2,1.29,3.2,3.3.3h0Z"/><path class="cls-14" d="m18.24,61.7c.4.4,1.05.4,1.45,0l5.5-5.51c.4-.4.4-1.05,0-1.45l.06.06c-.4-.4-1.05-.4-1.45,0l-5.5,5.51c-.4.4-.4,1.05,0,1.45l-.06-.06Z"/><path class="cls-14" d="m25.2,67.26s0,0,0,0c.4-.4.4-1.04,0-1.44l-5.51-5.51s0,0,0,0c-.4-.4-1.04-.4-1.44,0l.06-.06s0,0,0,0c-.4.4-.4,1.04,0,1.44l5.52,5.51s0,0,0,0c.4.4,1.04.4,1.44,0l-.06.06Z"/><path class="cls-14" d="m19,62h12c.55,0,1-.45,1-1s-.45-1-1-1h-12c-.55,0-1,.45-1,1s.45,1,1,1Z"/><path class="cls-7" d="m63.26,61.7c-.4.4-1.05.4-1.45,0l-5.51-5.51c-.4-.4-.4-1.05,0-1.45l-.06.06c.4-.4,1.05-.4,1.45,0l5.51,5.51c.4.4.4,1.05,0,1.45l.06-.06Z"/><path class="cls-7" d="m56.3,67.26s0,0,0,0c-.4-.4-.4-1.04,0-1.44l5.52-5.52s0,0,0,0c.4-.4,1.04-.4,1.44,0l-.06-.06s0,0,0,0c.4.4.4,1.04,0,1.44l-5.51,5.51s0,0,0,0c-.4.4-1.04.4-1.44,0l.06.06Z"/><path class="cls-7" d="m62.5,62h-12c-.55,0-1-.45-1-1s.45-1,1-1h12c.55,0,1,.45,1,1s-.45,1-1,1Z"/><path class="cls-18" d="m279.2,26.31v3.61h-1.22v-8.33h3.33c1.73,0,2.66.94,2.66,2.24,0,1.09-.62,1.74-1.38,1.96.63.18,1.23.67,1.23,2.12v.37c0,.57-.02,1.28.11,1.64h-1.19c-.15-.36-.15-1-.15-1.81v-.17c0-1.13-.31-1.63-1.78-1.63h-1.6Zm0-1.02h1.75c1.22,0,1.74-.46,1.74-1.35s-.55-1.32-1.64-1.32h-1.86v2.67Z"/><path class="cls-18" d="m286.3,27.09c0,1.15.58,2,1.58,2,.92,0,1.21-.46,1.4-.89h1.18c-.24.77-.89,1.85-2.61,1.85-1.94,0-2.74-1.55-2.74-3.13,0-1.83.93-3.27,2.8-3.27,1.99,0,2.65,1.57,2.65,2.91,0,.19,0,.34-.02.51h-4.25Zm3.08-.8c-.01-.95-.47-1.71-1.48-1.71s-1.47.71-1.57,1.71h3.04Z"/><path class="cls-18" d="m297.14,21.12v7.08c0,.57,0,1.13.01,1.72h-1.13c-.03-.17-.05-.6-.06-.82-.3.61-.9.97-1.88.97-1.56,0-2.53-1.27-2.53-3.14s1.04-3.26,2.74-3.26c1.04,0,1.52.41,1.68.74v-3.29h1.18Zm-4.38,5.77c0,1.42.66,2.19,1.59,2.19,1.38,0,1.66-1.04,1.66-2.29s-.26-2.14-1.58-2.14c-1.04,0-1.66.82-1.66,2.24Z"/><path class="cls-18" d="m303.78,22.64h-2.66v-1.05h6.56v1.05h-2.66v7.28h-1.24v-7.28Z"/><path class="cls-18" d="m307.77,25.47c0-.81,0-1.3-.01-1.66h1.15c.02.16.03.67.03,1.21.31-.8,1.02-1.33,2.04-1.36v1.16c-1.25.02-2.04.62-2.04,2.18v2.91h-1.18v-4.45Z"/><path class="cls-18" d="m316.54,28.54c0,.56.05,1.21.08,1.38h-1.13c-.05-.13-.08-.43-.1-.76-.21.39-.69.9-1.85.9-1.45,0-2.06-.94-2.06-1.88,0-1.37,1.08-2,2.89-2h1.01v-.49c0-.52-.17-1.13-1.24-1.13-.96,0-1.13.47-1.23.94h-1.13c.08-.89.63-1.84,2.41-1.84,1.52,0,2.36.62,2.36,2.02v2.85Zm-1.15-1.56h-.93c-1.18,0-1.78.33-1.78,1.14,0,.6.4,1.04,1.13,1.04,1.39,0,1.58-.94,1.58-1.99v-.19Z"/><path class="cls-18" d="m323.46,21.12v7.08c0,.57,0,1.13.01,1.72h-1.13c-.03-.17-.05-.6-.06-.82-.3.61-.9.97-1.88.97-1.56,0-2.53-1.27-2.53-3.14s1.04-3.26,2.74-3.26c1.04,0,1.52.41,1.68.74v-3.29h1.18Zm-4.37,5.77c0,1.42.66,2.19,1.59,2.19,1.38,0,1.65-1.04,1.65-2.29s-.26-2.14-1.58-2.14c-1.04,0-1.66.82-1.66,2.24Z"/><path class="cls-18" d="m325.98,27.09c0,1.15.58,2,1.58,2,.91,0,1.21-.46,1.39-.89h1.18c-.24.77-.89,1.85-2.61,1.85-1.94,0-2.74-1.55-2.74-3.13,0-1.83.93-3.27,2.8-3.27,1.99,0,2.65,1.57,2.65,2.91,0,.19,0,.34-.02.51h-4.25Zm3.08-.8c-.01-.95-.47-1.71-1.47-1.71s-1.47.71-1.57,1.71h3.04Z"/><path class="cls-17" d="m159.3,56.53v3.62c.31-.53.86-1.04,1.9-1.04.97,0,2.05.53,2.05,2.34v3.88h-1.05v-3.71c0-1.03-.44-1.61-1.32-1.61-1.09,0-1.58.72-1.58,1.99v3.32h-1.05v-8.81h1.05Z"/><path class="cls-17" d="m164.19,59.26h1.05v-1.79h1.05v1.79h1.34v.86h-1.34v3.56c0,.59.14.89.69.89.15,0,.36,0,.53-.05v.79c-.26.1-.62.11-.91.11-.95,0-1.37-.49-1.37-1.5v-3.81h-1.05v-.86Z"/><path class="cls-17" d="m167.83,59.26h1.05v-1.79h1.05v1.79h1.34v.86h-1.34v3.56c0,.59.14.89.69.89.15,0,.36,0,.53-.05v.79c-.26.1-.62.11-.91.11-.95,0-1.37-.49-1.37-1.5v-3.81h-1.05v-.86Z"/><path class="cls-17" d="m173.39,64.59v3.14h-1.05v-6.99c0-.5,0-1.01-.01-1.48h1.02c.02.2.04.57.04.96.33-.61.95-1.1,1.99-1.1,1.41,0,2.43,1.18,2.43,3.03,0,2.17-1.17,3.34-2.65,3.34-.98,0-1.5-.41-1.77-.9Zm3.33-2.4c0-1.29-.59-2.17-1.63-2.17-1.26,0-1.76.8-1.76,2.27s.41,2.31,1.68,2.31c1.11,0,1.71-.92,1.71-2.41Z"/><path class="cls-17" d="m179.79,63.6c.17.67.67,1.06,1.49,1.06.89,0,1.24-.39,1.24-.94s-.28-.83-1.44-1.11c-1.74-.42-2.1-.95-2.1-1.78s.63-1.71,2.2-1.71,2.21.91,2.29,1.76h-1.02c-.09-.39-.39-.94-1.32-.94-.85,0-1.11.41-1.11.81,0,.45.25.68,1.36.95,1.84.44,2.21,1.05,2.21,1.96,0,1.07-.84,1.84-2.36,1.84s-2.35-.8-2.5-1.88h1.04Z"/><path class="cls-17" d="m185.28,61.01v-1.73h1.06v1.73h-1.06Zm0,4.33v-1.74h1.06v1.74h-1.06Z"/><path class="cls-17" d="m187.85,65.95l3.36-9.08h.94l-3.35,9.08h-.94Z"/><path class="cls-17" d="m193.21,65.95l3.36-9.08h.94l-3.35,9.08h-.94Z"/><path class="cls-17" d="m198.85,60.91c0-.85,0-1.33-.01-1.65h1.03c.02.17.03.65.03,1.24.32-.82,1.04-1.35,2.05-1.39v1.05c-1.25.04-2.05.69-2.05,2.23v2.95h-1.05v-4.43Z"/><path class="cls-17" d="m203.61,62.49c0,1.24.63,2.12,1.66,2.12.96,0,1.27-.5,1.47-.94h1.06c-.24.78-.89,1.82-2.56,1.82-1.91,0-2.69-1.55-2.69-3.12,0-1.81.91-3.25,2.76-3.25,1.96,0,2.6,1.57,2.6,2.87,0,.19,0,.34-.02.5h-4.29Zm3.24-.74c-.01-1-.52-1.8-1.55-1.8s-1.54.74-1.65,1.8h3.2Z"/><path class="cls-17" d="m214.39,56.53v7.09c0,.57,0,1.13.01,1.72h-1.01c-.03-.16-.05-.63-.05-.86-.3.63-.92,1.01-1.91,1.01-1.56,0-2.52-1.27-2.52-3.12s1.04-3.25,2.72-3.25c1.08,0,1.56.44,1.72.78v-3.36h1.05Zm-4.4,5.8c0,1.47.7,2.26,1.65,2.26,1.42,0,1.73-1.05,1.73-2.38s-.28-2.21-1.65-2.21c-1.07,0-1.74.85-1.74,2.33Z"/><path class="cls-17" d="m215.46,59.26h1.05v-1.79h1.05v1.79h1.34v.86h-1.34v3.56c0,.59.14.89.69.89.15,0,.36,0,.53-.05v.79c-.26.1-.62.11-.91.11-.95,0-1.36-.49-1.36-1.5v-3.81h-1.05v-.86Z"/><path class="cls-17" d="m219.97,60.91c0-.85,0-1.33-.01-1.65h1.03c.02.17.03.65.03,1.24.32-.82,1.04-1.35,2.05-1.39v1.05c-1.25.04-2.05.69-2.05,2.23v2.95h-1.05v-4.43Z"/><path class="cls-17" d="m228.52,64.01c0,.55.05,1.15.08,1.33h-1c-.05-.14-.08-.42-.1-.8-.21.41-.7.94-1.88.94-1.43,0-2.05-.93-2.05-1.86,0-1.36,1.07-1.98,2.87-1.98h1.04v-.52c0-.54-.17-1.19-1.31-1.19-1.02,0-1.19.5-1.3.98h-1.02c.08-.84.6-1.81,2.35-1.8,1.49,0,2.31.61,2.31,1.99v2.91Zm-1.03-1.64h-.98c-1.21,0-1.86.33-1.86,1.19,0,.63.43,1.09,1.18,1.09,1.46,0,1.66-.99,1.66-2.09v-.19Z"/><path class="cls-17" d="m235.39,56.53v7.09c0,.57,0,1.13.01,1.72h-1.01c-.03-.16-.05-.63-.05-.86-.3.63-.92,1.01-1.91,1.01-1.56,0-2.52-1.27-2.52-3.12s1.04-3.25,2.72-3.25c1.08,0,1.56.44,1.72.78v-3.36h1.05Zm-4.4,5.8c0,1.47.7,2.26,1.65,2.26,1.42,0,1.73-1.05,1.73-2.38s-.28-2.21-1.65-2.21c-1.07,0-1.74.85-1.74,2.33Z"/><path class="cls-17" d="m237.81,62.49c0,1.24.63,2.12,1.66,2.12.96,0,1.27-.5,1.47-.94h1.06c-.24.78-.89,1.82-2.56,1.82-1.91,0-2.69-1.55-2.69-3.12,0-1.81.91-3.25,2.76-3.25,1.96,0,2.6,1.57,2.6,2.87,0,.19,0,.34-.02.5h-4.29Zm3.24-.74c-.01-1-.52-1.8-1.55-1.8s-1.54.74-1.65,1.8h3.2Z"/><path class="cls-17" d="m243.29,65.34v-1.77h1.1v1.77h-1.1Z"/><path class="cls-17" d="m250.54,64.01c0,.55.05,1.15.08,1.33h-1c-.05-.14-.08-.42-.1-.8-.21.41-.7.94-1.88.94-1.43,0-2.05-.93-2.05-1.86,0-1.36,1.07-1.98,2.87-1.98h1.04v-.52c0-.54-.17-1.19-1.31-1.19-1.02,0-1.19.5-1.3.98h-1.02c.08-.84.6-1.81,2.35-1.8,1.49,0,2.31.61,2.31,1.99v2.91Zm-1.03-1.64h-.98c-1.21,0-1.86.33-1.86,1.19,0,.63.43,1.09,1.18,1.09,1.46,0,1.66-.99,1.66-2.09v-.19Z"/><path class="cls-17" d="m253.41,64.59v3.14h-1.05v-6.99c0-.5,0-1.01-.01-1.48h1.02c.02.2.04.57.04.96.33-.61.95-1.1,1.99-1.1,1.41,0,2.43,1.18,2.43,3.03,0,2.17-1.17,3.34-2.65,3.34-.98,0-1.5-.41-1.77-.9Zm3.33-2.4c0-1.29-.59-2.17-1.62-2.17-1.26,0-1.76.8-1.76,2.27s.41,2.31,1.68,2.31c1.11,0,1.71-.92,1.71-2.41Z"/><path class="cls-17" d="m260.25,64.59v3.14h-1.05v-6.99c0-.5,0-1.01-.01-1.48h1.02c.02.2.04.57.04.96.33-.61.95-1.1,1.99-1.1,1.41,0,2.43,1.18,2.43,3.03,0,2.17-1.17,3.34-2.65,3.34-.98,0-1.5-.41-1.77-.9Zm3.33-2.4c0-1.29-.59-2.17-1.62-2.17-1.26,0-1.76.8-1.76,2.27s.41,2.31,1.68,2.31c1.11,0,1.71-.92,1.71-2.41Z"/><path class="cls-17" d="m137.58,58.52h-.8v-1.61c0-1.77-1.44-3.21-3.21-3.21s-3.21,1.44-3.21,3.21v1.61h-.8c-.44,0-.8.36-.8.8v6.43c0,.44.36.8.8.8h8.03c.44,0,.8-.36.8-.8v-6.43c0-.44-.36-.8-.8-.8Zm-4.02,4.82c-.44,0-.8-.36-.8-.8s.36-.8.8-.8.8.36.8.8-.36.8-.8.8Zm1.61-4.82h-3.21v-1.61c0-.89.72-1.61,1.61-1.61s1.61.72,1.61,1.61v1.61Z"/></g></svg>