<?xml version="1.0" encoding="utf-8"?>
<!-- Generator: Adobe Illustrator 27.9.0, SVG Export Plug-In . SVG Version: 6.00 Build 0)  -->
<svg version="1.1" id="Layer_1" xmlns="http://www.w3.org/2000/svg" xmlns:xlink="http://www.w3.org/1999/xlink" x="0px" y="0px"
	 viewBox="0 0 800 733.3" style="enable-background:new 0 0 800 733.3;" xml:space="preserve">
<style type="text/css">
	.st0{fill:#EE8585;}
	.st1{fill-rule:evenodd;clip-rule:evenodd;fill:#EE8585;}
</style>
<path class="st0" d="M300,466.7c-18.4,0-33.3,14.9-33.3,33.3c0,18.4,14.9,33.3,33.3,33.3s33.3-14.9,33.3-33.3S318.4,466.7,300,466.7
	z"/>
<path class="st0" d="M466.7,500c0-18.4,14.9-33.3,33.3-33.3c18.4,0,33.3,14.9,33.3,33.3c0,18.4-14.9,33.3-33.3,33.3
	S466.7,518.4,466.7,500z"/>
<path class="st1" d="M400,0c-36.8,0-66.7,29.8-66.7,66.7c0,24.7,13.4,46.2,33.3,57.7V200H200c-55.2,0-100,44.8-100,100v333.3
	c0,55.2,44.8,100,100,100h400c55.2,0,100-44.8,100-100V300c0-55.2-44.8-100-100-100H433.3v-75.6c19.9-11.5,33.3-33.1,33.3-57.7
	C466.7,29.9,436.8,0,400,0L400,0z M166.7,300c0-18.4,14.9-33.3,33.3-33.3h46.1l48.2,96.5c11.3,22.6,34.4,36.9,59.6,36.9H446
	c25.2,0,48.3-14.3,59.6-36.9l48.2-96.5H600c18.4,0,33.3,14.9,33.3,33.3v333.3c0,18.4-14.9,33.3-33.3,33.3H200
	c-18.4,0-33.3-14.9-33.3-33.3V300z M446.1,333.4l33.3-66.7H320.6l33.3,66.7L446.1,333.4L446.1,333.4z"/>
<path class="st0" d="M33.3,433.4C14.9,433.4,0,448.3,0,466.7v66.7c0,18.4,14.9,33.3,33.3,33.3s33.3-14.9,33.3-33.3v-66.7
	C66.7,448.3,51.7,433.4,33.3,433.4L33.3,433.4z"/>
<path class="st0" d="M733.3,466.7c0-18.4,14.9-33.3,33.3-33.3s33.4,14.9,33.4,33.3v66.7c0,18.4-14.9,33.3-33.3,33.3
	s-33.3-14.9-33.3-33.3v-66.7H733.3L733.3,466.7z"/>
</svg>
