<?xml version="1.0" encoding="utf-8"?>
<!-- Generator: Adobe Illustrator 27.9.0, SVG Export Plug-In . SVG Version: 6.00 Build 0)  -->
<svg version="1.1" id="Layer_1" xmlns="http://www.w3.org/2000/svg" xmlns:xlink="http://www.w3.org/1999/xlink" x="0px" y="0px"
	 viewBox="0 0 800 800" style="enable-background:new 0 0 800 800;" xml:space="preserve">
<style type="text/css">
	.st0{fill:#838383;}
	.st1{fill-rule:evenodd;clip-rule:evenodd;fill:#838383;}
</style>
<path class="st0" d="M300,500c-18.4,0-33.3,14.9-33.3,33.3c0,18.4,14.9,33.3,33.3,33.3s33.3-14.9,33.3-33.3
	C333.3,514.9,318.4,500,300,500z"/>
<path class="st0" d="M466.7,533.3c0-18.4,14.9-33.3,33.3-33.3s33.3,14.9,33.3,33.3c0,18.4-14.9,33.3-33.3,33.3
	S466.7,551.7,466.7,533.3z"/>
<path class="st1" d="M400,33.3c-36.8,0-66.7,29.8-66.7,66.7c0,24.7,13.4,46.2,33.3,57.7v75.6H200c-55.2,0-100,44.8-100,100v333.3
	c0,55.2,44.8,100,100,100h400c55.2,0,100-44.8,100-100V333.3c0-55.2-44.8-100-100-100H433.3v-75.6c19.9-11.5,33.3-33.1,33.3-57.7
	C466.7,63.2,436.8,33.3,400,33.3z M166.7,333.3c0-18.4,14.9-33.3,33.3-33.3h46.1l48.2,96.5c11.3,22.6,34.4,36.9,59.6,36.9h92.1
	c25.2,0,48.3-14.3,59.6-36.9l48.2-96.5H600c18.4,0,33.3,14.9,33.3,33.3v333.3c0,18.4-14.9,33.3-33.3,33.3H200
	c-18.4,0-33.3-14.9-33.3-33.3V333.3z M446.1,366.7l33.3-66.7H320.6l33.3,66.7H446.1z"/>
<path class="st0" d="M33.3,466.7C14.9,466.7,0,481.6,0,500v66.7C0,585.1,14.9,600,33.3,600c18.4,0,33.3-14.9,33.3-33.3V500
	C66.7,481.6,51.7,466.7,33.3,466.7z"/>
<path class="st0" d="M733.3,500c0-18.4,14.9-33.3,33.3-33.3S800,481.6,800,500v66.7c0,18.4-14.9,33.3-33.3,33.3
	s-33.3-14.9-33.3-33.3V500z"/>
</svg>
