<?xml version="1.0" encoding="UTF-8"?><svg id="Layer_2" xmlns="http://www.w3.org/2000/svg" viewBox="0 0 498 498"><defs><style>.cls-1{fill:#ec4899;}.cls-1,.cls-2,.cls-3{stroke-width:0px;}.cls-2{fill:#10b981;}.cls-3{fill:#6366f1;}</style></defs><path class="cls-3" d="m249,49.8c100.49,0,183.55,74.42,197.19,171.14l49.42-6.4C478.83,93.33,374.83,0,249,0c-48.02,0-92.85,13.6-130.88,37.15l26.7,42.06c30.31-18.64,65.98-29.4,104.17-29.4Z"/><path class="cls-1" d="m60.82,314.34c-7.11-20.47-11.02-42.44-11.02-65.34,0-69.15,35.25-130.05,88.74-165.77l-26.7-42.06C44.45,85.74,0,162.17,0,249c0,28.84,4.92,56.53,13.94,82.3l46.88-16.96Z"/><path class="cls-2" d="m496.53,221.96l-49.4,6.4c.7,6.79,1.06,13.67,1.06,20.65,0,110.02-89.18,199.2-199.2,199.2-84.48,0-156.63-52.62-185.59-126.85l-46.89,16.96c35.9,93.4,126.45,159.69,232.49,159.69,137.52,0,249-111.48,249-249,0-9.14-.51-18.16-1.47-27.04Z"/></svg>