<?xml version="1.0" encoding="UTF-8"?><svg id="Layer_1" xmlns="http://www.w3.org/2000/svg" viewBox="0 0 785.1 800"><defs><style>.cls-1{fill:#878787;fill-rule:evenodd;stroke-width:0px;}</style></defs><path class="cls-1" d="m702.3,400c0-17.4-1.6-35.2-4.8-53l87.6-75.9-83.1-142-110.5,36.8c-27.9-23.2-59.7-41.4-93.3-53.5L475.4,0h-165.8l-22.8,112.4c-33.9,12.1-65.2,30.1-93.3,53.5l-110.4-36.8L0,271.1l87.6,75.9c-3.2,17.8-4.8,35.6-4.8,53s1.6,35.2,4.8,53L0,528.9l83.1,142,110.5-36.8c27.9,23.2,59.7,41.4,93.3,53.5l22.7,112.4h165.7l22.8-112.4c33.9-12.1,65.2-30.1,93.3-53.5l110.5,36.9,83.1-142-87.5-76c3.2-17.8,4.8-35.6,4.8-53m-309.8,164.7c-90.8,0-164.7-73.9-164.7-164.7s73.9-164.7,164.7-164.7,164.7,73.9,164.7,164.7-73.9,164.7-164.7,164.7"/></svg>