<?xml version="1.0" encoding="UTF-8"?><svg id="Layer_1" xmlns="http://www.w3.org/2000/svg" viewBox="0 0 615.38 695.57"><defs><style>.cls-1{fill:#fff;stroke-width:0px;}</style></defs><path class="cls-1" d="m584.62,249.42c0-33.99-27.55-61.54-61.54-61.54h-10.77C503.57,75.72,405.57-8.11,293.41.63c-100.01,7.79-179.46,87.24-187.26,187.26h-13.85c-33.99,0-61.54,27.55-61.54,61.54L0,634.03c0,33.99,27.55,61.54,61.54,61.54h492.31c33.99,0,61.54-27.55,61.54-61.54l-30.77-384.62ZM309.23,92.5c55.54-.27,102.79,40.42,110.77,95.38h-221.54c8.88-54.46,55.59-94.69,110.77-95.38Zm87.69,280h-178.46c-25.49,0-46.15-20.66-46.15-46.15.65-25.22,20.94-45.51,46.15-46.15h180c25.49,0,46.15,20.66,46.15,46.15h0c-.83,25.74-21.94,46.17-47.69,46.15Z"/></svg>