<?xml version="1.0" encoding="utf-8"?>
<!-- Generator: Adobe Illustrator 28.0.0, SVG Export Plug-In . SVG Version: 6.00 Build 0)  -->
<svg version="1.1" id="Layer_1" xmlns="http://www.w3.org/2000/svg" xmlns:xlink="http://www.w3.org/1999/xlink" x="0px" y="0px"
	 viewBox="0 0 800 800" style="enable-background:new 0 0 800 800;" xml:space="preserve">
<style type="text/css">
	.st0{fill:none;stroke:#303030;stroke-width:114.286;stroke-opacity:0.1;}
	.st1{fill:#303030;fill-opacity:0.8;}
</style>
<path class="st0" d="M400,742.9c189.4,0,342.9-153.5,342.9-342.9S589.4,57.1,400,57.1S57.1,210.6,57.1,400S210.6,742.9,400,742.9z"
	/>
<path class="st1" d="M400,0c106.1,0,207.8,42.1,282.8,117.2c75,75,117.2,176.8,117.2,282.8H685.7c0-37.5-7.4-74.7-21.7-109.3
	C649.6,256,628.6,224.5,602,198c-26.5-26.5-58-47.6-92.7-61.9c-34.7-14.4-71.8-21.7-109.3-21.7V0z"/>
</svg>
