<?xml version="1.0" encoding="UTF-8"?><svg id="Graph" xmlns="http://www.w3.org/2000/svg" viewBox="0 0 320 320"><defs><style>.cls-1{stroke:#383838;}.cls-1,.cls-2,.cls-3,.cls-4{stroke-width:.5px;}.cls-1,.cls-2,.cls-3,.cls-4,.cls-5{fill:none;}.cls-1,.cls-4,.cls-5{stroke-miterlimit:10;}.cls-6{letter-spacing:-.02em;}.cls-2,.cls-3{stroke:#6b6b6b;stroke-linecap:round;stroke-linejoin:round;}.cls-3{stroke-dasharray:0 0 1 2.01;}.cls-7{fill:#fff;font-size:11.04px;}.cls-7,.cls-8{font-family:ProximaNova-Semibold, 'Proxima Nova';font-weight:600;}.cls-9{letter-spacing:-.07em;}.cls-4{stroke:#777;}.cls-10{fill:#e5e5e5;}.cls-10,.cls-11{font-family:ProximaNova-Regular, 'Proxima Nova';}.cls-10,.cls-8{font-size:7px;}.cls-11{fill:#a3a3a3;font-size:6px;}.cls-12{stroke-width:0px;}.cls-12,.cls-8{fill:#22c55e;}.cls-5{stroke:#5de289;}</style></defs><line class="cls-1" x1="44.51" y1="246.76" x2="261.52" y2="246.76"/><line class="cls-1" x1="44.51" y1="212.52" x2="261.52" y2="212.52"/><line class="cls-1" x1="44.51" y1="178.28" x2="261.52" y2="178.28"/><line class="cls-1" x1="44.51" y1="144.04" x2="261.52" y2="144.04"/><line class="cls-1" x1="78.78" y1="101" x2="78.78" y2="281.23"/><line class="cls-1" x1="113.02" y1="101" x2="113.02" y2="281.23"/><line class="cls-1" x1="147.26" y1="101" x2="147.26" y2="281.23"/><line class="cls-1" x1="181.5" y1="101" x2="181.5" y2="281.23"/><line class="cls-1" x1="215.26" y1="101" x2="215.26" y2="281.23"/><line class="cls-1" x1="249.5" y1="101" x2="249.5" y2="281.23"/><line class="cls-1" x1="44.51" y1="109.8" x2="261.52" y2="109.8"/><line class="cls-2" x1="44.51" y1="250.52" x2="45.01" y2="250.52"/><line class="cls-3" x1="47.02" y1="250.52" x2="260.01" y2="250.52"/><line class="cls-2" x1="261.02" y1="250.52" x2="261.52" y2="250.52"/><line class="cls-4" x1="44.61" y1="281" x2="261.62" y2="281"/><line class="cls-4" x1="59.59" y1="281" x2="59.59" y2="284.31"/><line class="cls-4" x1="120.36" y1="281.36" x2="120.36" y2="284.67"/><line class="cls-4" x1="180.36" y1="281.36" x2="180.36" y2="284.67"/><line class="cls-4" x1="240.36" y1="281.36" x2="240.36" y2="284.67"/><text class="cls-10" transform="translate(108.78 292.58)"><tspan x="0" y="0">12:00am</tspan></text><text class="cls-10" transform="translate(48.78 292.58)"><tspan x="0" y="0">10:00am</tspan></text><text class="cls-10" transform="translate(169.78 292.58)"><tspan x="0" y="0">2:00pm</tspan></text><text class="cls-10" transform="translate(230.78 292.58)"><tspan x="0" y="0">4:00pm</tspan></text><line class="cls-4" x1="44.69" y1="144.83" x2="41.38" y2="144.83"/><line class="cls-4" x1="44.69" y1="204.83" x2="41.38" y2="204.83"/><line class="cls-4" x1="44.69" y1="234.83" x2="41.38" y2="234.83"/><line class="cls-4" x1="44.69" y1="174.83" x2="41.38" y2="174.83"/><line class="cls-4" x1="44.69" y1="264.83" x2="41.38" y2="264.83"/><text class="cls-10" transform="translate(27.07 266.86)"><tspan x="0" y="0">14.6</tspan></text><text class="cls-10" transform="translate(27.07 236.86)"><tspan x="0" y="0">14.8</tspan></text><text class="cls-10" transform="translate(27.07 206.86)"><tspan x="0" y="0">15.0</tspan></text><text class="cls-10" transform="translate(27.07 176.86)"><tspan x="0" y="0">15.2</tspan></text><text class="cls-10" transform="translate(27.07 146.86)"><tspan x="0" y="0">15.4</tspan></text><text class="cls-11" transform="translate(272.68 250.11)"><tspan x="0" y="0">Previous</tspan><tspan x="0" y="7.2">14</tspan><tspan class="cls-9" x="5.38" y="7.2">.</tspan><tspan x="6.37" y="7.2">71</tspan></text><line class="cls-4" x1="44.54" y1="101" x2="44.54" y2="281.23"/><text class="cls-8" transform="translate(206.78 133.58)"><tspan class="cls-6" x="0" y="0">0</tspan><tspan x="4.14" y="0">.37 (2.52%)</tspan></text><path class="cls-12" d="m201.11,134.24c-.2,0-.36-.16-.36-.36v-4.13l-1.53,1.53c-.14.14-.36.14-.5,0-.14-.14-.14-.36,0-.5l2.14-2.14h0s.02-.02.02-.02c.03-.02.06-.04.09-.06.04-.02.09-.03.13-.03,0,0,0,0,0,0,0,0,0,0,0,0,0,0,0,0,0,0,0,0,0,0,0,0,0,0,0,0,0,0,0,0,0,0,0,0,0,0,0,0,0,0,.05,0,.09,0,.13.03.04.02.08.04.12.08,0,0,0,0,0,0l2.14,2.14c.14.14.14.36,0,.5-.14.14-.36.14-.5,0l-1.53-1.53v4.13c0,.2-.16.36-.36.36Z"/><text class="cls-7" transform="translate(213.05 121.7)"><tspan x="0" y="0">$15.08</tspan></text><polyline class="cls-5" points="44.69 264.83 52.72 253.31 59.59 257.37 69.69 250.11 78.78 250.52 85.74 262.12 94 243 99.04 247.21 105 243 117.38 257.31 132 229 139.39 232.12 143.06 236.95 147.26 232.12 149.94 212.52 160 212.52 170.15 217.82 176 215 181.5 191.12 188 180 193.22 172.12 201.11 174.83 210 169 217.82 176.86 225 187 233 185 236.62 191.12 243 186 246.15 188.01 254.01 187.55"/></svg>