<?xml version="1.0" encoding="UTF-8"?><svg id="Layer_1" xmlns="http://www.w3.org/2000/svg" viewBox="0 0 666.67 666.67"><defs><style>.cls-1{fill:#818cf8;fill-rule:evenodd;stroke-width:0px;}</style></defs><path class="cls-1" d="m666.67,333.33c0,184.09-149.24,333.33-333.33,333.33S0,517.43,0,333.33,149.24,0,333.33,0s333.33,149.24,333.33,333.33Zm-460.61,3.03c0-70.21,57.06-127.27,127.27-127.27,21.42,0,41.79,5.3,59.39,14.85l30.97-30.97c-26.09-16.55-57.06-26.3-90.36-26.3-93.76,0-169.7,75.94-169.7,169.7h-63.64l84.85,84.85,84.85-84.85h-63.64Zm275.76-84.85l-84.85,84.85h63.64c0,70.21-57.06,127.27-127.27,127.27-21.42,0-41.79-5.3-59.39-14.85l-30.97,30.97c26.09,16.55,57.06,26.3,90.36,26.3,93.76,0,169.7-75.94,169.7-169.7h63.64l-84.85-84.85Z"/></svg>