<?xml version="1.0" encoding="utf-8"?>
<!-- Generator: Adobe Illustrator 27.9.0, SVG Export Plug-In . SVG Version: 6.00 Build 0)  -->
<svg version="1.1" id="Layer_1" xmlns="http://www.w3.org/2000/svg" xmlns:xlink="http://www.w3.org/1999/xlink" x="0px" y="0px"
	 viewBox="0 0 1200 800" style="enable-background:new 0 0 1200 800;" xml:space="preserve">
<style type="text/css">
	.st0{fill:#FFFFFF;}
</style>
<path class="st0" d="M138.5,309.9h200.9v180.1H138.5V309.9z M247.6,435.1v-69.1h-24.4v85.7c0,0,40.3,0.7,58.8,0
	c16.8-0.5,28.1-10.3,32.5-26.4c4.6-17.3,4.9-34.9,0.7-52.5c-2.7-11.5-9.3-20.7-21.2-24.4c-5.9-1.7-12-2.7-18.1-2.7
	c-37.6-0.2-117.2,0-117.2,0v15.6h34.4v90.3h23.9v-90.3h52c11.7,0,17.8,4.9,20.5,16.1c2.7,10.5,2.4,21.2,1.5,31.7
	c-0.5,5.6-2.2,11.2-3.9,16.6c-2,5.1-6.1,8.8-11.7,9.5C265.1,435.1,247.6,435.1,247.6,435.1L247.6,435.1z"/>
<path class="st0" d="M483.6,419.5v-54.4h24.9v8.1c4.4-6.8,10.7-9.5,18.3-9.5c7.3,0,14.2,1.5,18.1,8.8c5.1-7.8,12.7-9.3,21.2-8.8
	c10.3,0.7,15.6,5.9,15.9,16.4c0.2,11.2,0.2,22.2,0.2,33.4v6.1h-26.6v-33.9c-0.2-3.4-2-5.1-4.9-5.1c-2.7,0.2-4.4,1.7-4.4,5.4v33.7
	h-26.6v-30.3c0-1.5,0-3.2-0.2-4.6c-0.2-2.7-1.7-4.1-4.4-4.1c-2.7,0-4.1,1.5-4.6,4.1c-0.2,1.5-0.2,2.9-0.2,4.4v30.8
	C501.2,419.5,492.4,419.5,483.6,419.5z M385.2,419.8c3.2-8.8,6.1-17.1,9-25.4c5.4-15.4,10.7-30.5,16.1-45.9c0.7-2,1.5-2.7,3.7-2.7
	c12,0.2,24.2,0,36.4,0c8.8,24.4,17.3,48.8,26.4,73.7h-27.1c-2,0-2.9-0.5-3.4-2.4c-1-3.9-2.2-7.8-3.7-11.5c-0.2-1-1.7-2-2.7-2
	c-6.6-0.2-13.2,0-19.8-0.2c-1.7,0-2.4,0.5-2.7,2.2c-1,3.9-2.2,7.8-3.4,11.7c-0.2,0.7-1.2,2-2,2C403.3,419.8,394.5,419.8,385.2,419.8
	z M422.1,385.8h16.4c-2.7-8.1-5.1-15.6-7.8-23.4h-0.7C427.2,370,424.8,377.8,422.1,385.8z M991.7,419.8h-24.4V411
	c-0.5,0.2-0.7,0.2-1,0.2c-3.9,8.1-10.7,10.5-19,10c-8.5-0.5-15.1-4.4-18.8-12.2c-4.6-10.3-4.9-21-1-31.7c5.9-16.6,29-18.1,37.6-5.6
	v-31h26.6V419.8z M966.6,391.7c-0.5-2.7-1-5.6-1.7-8.3c-0.7-2.4-2.9-3.7-5.6-3.7c-2.4,0-4.4,1.2-5.4,3.4c-2,5.4-2,11,0,16.4
	c1,2.4,2.9,3.7,5.6,3.7s4.6-1.5,5.4-3.9C965.9,397.1,966.1,394.4,966.6,391.7z M891.9,384.6c-0.5-3.9-2.4-6.1-7.1-6.8
	c-7.6-1.5-14.6-0.2-21.7,2.7c-1,0.2-1.7,0.7-2.7,1c-0.2,0-0.5,0-0.7-0.2V368c0-0.7,1-1.7,1.7-2c13.4-3.7,26.8-4.1,40-0.2
	c9.8,2.7,14.6,9.3,14.9,19.5c0.2,11.2,0,22.7,0,34.2h-24.7v-6.8h-0.7c-6.6,8.5-15.6,9.5-25.4,7.1c-6.3-1.5-11.2-5.4-12-12.4
	c-1-7.8,1-14.4,8.3-18.8c5.1-2.9,10.7-3.9,16.6-4.1C882.9,384.6,887.3,384.6,891.9,384.6L891.9,384.6z M891.9,395.1
	c-3.9,0.7-7.8,1-11.2,2c-2.7,0.7-3.4,3.2-3.2,6.1c0.5,2.7,2.2,3.7,4.6,4.1C888.5,407.8,892.6,403.2,891.9,395.1z M652,398.5h-36.9
	c-0.2,3.9,1.7,6.3,5.9,7.6c6.8,2,13.7,1.2,20.3-0.2c2-0.5,3.7-1,6.1-1.7v12.9c0,0.5-1,1.2-1.5,1.5c-12.4,2.9-25.1,4.1-37.6,0.7
	c-12-3.4-18.8-12.2-19.5-24.7c-0.2-2.7-0.2-5.6,0.2-8.3c1.2-9.8,6.6-16.6,15.9-20c8.3-2.9,17.1-3.4,25.6-2c10,1.7,16.6,7.8,19,17.6
	C651,387.1,651.3,392.7,652,398.5z M628.6,386.8c-0.2-3.7-0.2-7.3-3.4-9.8c-2.2-1.7-4.6-1.5-6.8,0c-3.2,2.4-3.7,5.9-3.7,9.8H628.6z
	 M1061.3,398.3h-36.1c-0.2,3.9,2,7.1,6.6,7.6c4.9,0.7,9.8,0.7,14.6,0.5c3.7-0.2,7.1-1.5,11-2.2v13.7c-13.9,2.9-28.1,5.1-42,0
	c-10.3-3.7-15.4-11.7-16.4-22.5c-0.2-3.7-0.2-7.6,0.5-11.2c1.2-8.3,5.9-14.2,13.7-17.3c9.8-4.1,20-4.9,30.5-2.2s16.6,11.2,17.8,23.9
	C1061.5,391.7,1061.3,394.9,1061.3,398.3z M1024.7,386.6h13.9c-0.2-3.9,0-8.1-3.9-9.8c-1.7-1-4.9-0.7-6.6,0.2
	C1024.7,379,1024.4,382.9,1024.7,386.6z M785,364.9h12v15.6h-11.7c0,6.3-0.2,12,0,17.8c0.2,3.4,2.7,5.1,6.1,5.1
	c1.7,0,3.4-0.5,5.6-0.5v14.4c0,0.5-0.7,1.5-1.5,1.5c-7.3,2.2-14.6,3.2-22.2,2c-8.3-1.2-13.4-6.3-14.4-14.9
	c-0.7-6.8-0.5-13.9-0.5-20.7v-4.4h-9.3v-15.6h9.3v-10.7c0-1,1-2.4,1.7-2.7c7.6-2.4,15.1-4.6,22.7-7.1c0.5-0.2,1.2-0.2,2.2-0.5
	L785,364.9L785,364.9z M705,363.9c0,0.7,0.2,1.2,0.2,2v20c-1.2-0.2-2-0.2-2.9-0.5c-9.3-1.2-16.6,4.9-16.8,14.4v19.8h-26.4v-54.4
	h24.7v11C688.6,367.5,694.5,361.9,705,363.9L705,363.9z M831.4,419.5H805v-54.7h24.4v11c0.2,0.2,0.5,0.2,0.5,0.5
	c4.1-8.5,10-14.6,20.7-12.4v21.7c-1-0.2-2-0.2-2.7-0.5c-9.3-1.2-16.6,5.1-16.6,14.4L831.4,419.5L831.4,419.5z M741.8,419.5h-26.1
	v-54.7h26.1C741.8,364.9,741.8,419.5,741.8,419.5z M715.4,358.5v-17.8h26.1v17.8H715.4z"/>
</svg>
