<?xml version="1.0" encoding="UTF-8"?><svg id="Layer_1" xmlns="http://www.w3.org/2000/svg" viewBox="0 0 566 191.23"><defs><style>.cls-1{fill:#fff;}.cls-1,.cls-2{stroke-width:0px;}.cls-2{fill:#eb3d3d;}</style></defs><path class="cls-2" d="m26.51,111.87h-5.66v15.55H0v-61.85h29.78c17.23,0,28.19,9.01,28.19,23.33,0,8.92-4.24,15.64-11.66,19.44l12.99,19.09h-22.27l-10.52-15.55Zm1.94-30.22h-7.6v14.49h7.6c5.74,0,8.48-2.74,8.48-7.25s-2.74-7.25-8.48-7.25Z"/><path class="cls-1" d="m134.81,111.7l-18.19,15.73h-51.43v-61.85h50.28v15.73h-29.78v7.25h26.16v15.02h-26.16v8.13h49.12Z"/><path class="cls-1" d="m316.72,111.87h-5.66v15.55h-20.85v-61.85h29.78c17.23,0,28.19,9.01,28.19,23.33,0,8.92-4.24,15.64-11.66,19.44l12.99,19.09h-22.27l-10.52-15.55Zm1.94-30.22h-7.6v14.49h7.6c5.74,0,8.48-2.74,8.48-7.25s-2.74-7.25-8.48-7.25Z"/><path class="cls-1" d="m402.96,116.65h-23.5l-4.15,10.78h-21.21l27.04-61.85h20.5l27.04,61.85h-21.56l-4.15-10.78Zm-5.74-15.02l-6.01-15.55-6.01,15.55h12.02Z"/><path class="cls-1" d="m436.81,65.57h30.49c20.68,0,34.9,11.75,34.9,30.93s-14.23,30.93-34.9,30.93h-30.49v-61.85Zm29.6,45.59c8.75,0,14.76-5.21,14.76-14.67s-6.01-14.67-14.76-14.67h-8.75v29.34h8.75Z"/><path class="cls-1" d="m566,111.7v15.73h-51.43v-61.85h50.28v15.73h-29.78v7.25h26.16v15.02h-26.16v8.13h30.93Z"/><path class="cls-1" d="m241.08,81.74h-33.33v-16.17h72.3v16.17h-18.11v45.68h-20.85v-45.68Z"/><polygon class="cls-2" points="96.32 182.13 48.71 111.87 26.51 111.87 73.89 182.13 96.32 182.13"/><polygon class="cls-2" points="73.89 182.13 122.03 111.7 144.23 111.7 96.32 182.13 73.89 182.13"/><polygon class="cls-2" points="122.03 111.7 170.17 41.27 192.37 41.27 144.46 111.7 122.03 111.7"/><polygon class="cls-2" points="240.51 111.7 192.37 41.27 170.17 41.27 218.09 111.7 240.51 111.7"/><polygon class="cls-2" points="218.09 111.7 266.23 41.27 288.43 41.27 240.51 111.7 218.09 111.7"/><polygon class="cls-2" points="246.21 70.43 294.35 0 316.55 0 268.4 70.43 246.21 70.43"/><path class="cls-1" d="m125.37,65.57h30.49c20.68,0,34.9,11.75,34.9,30.93s-14.23,30.93-34.9,30.93h-30.49v-61.85Zm29.6,45.59c8.75,0,14.76-5.21,14.76-14.67s-6.01-14.67-14.76-14.67h-8.75v29.34h8.75Z"/><path class="cls-1" d="m237.29,81.74l3.91-16.17h38.84v16.17h-18.11v45.68h-20.85v-45.68h-3.79Z"/></svg>