<?xml version="1.0" encoding="UTF-8"?><svg id="Layer_1" xmlns="http://www.w3.org/2000/svg" viewBox="0 0 192.37 140.86"><defs><style>.cls-1{fill:#fff;}.cls-1,.cls-2{stroke-width:0px;}.cls-2{fill:#eb3d3d;}</style></defs><path class="cls-2" d="m26.51,70.6h-5.66v15.55H0V24.3h29.78c17.23,0,28.19,9.01,28.19,23.33,0,8.92-4.24,15.64-11.66,19.44l12.99,19.09h-22.27l-10.52-15.55Zm1.94-30.22h-7.6v14.49h7.6c5.74,0,8.48-2.74,8.48-7.25s-2.74-7.25-8.48-7.25Z"/><path class="cls-1" d="m134.81,70.43l-18.19,15.73h-51.43V24.3h50.28v15.73h-29.78v7.25h26.16v15.02h-26.16v8.13h49.12Z"/><polygon class="cls-2" points="96.32 140.86 48.71 70.6 26.51 70.6 73.89 140.86 96.32 140.86"/><polygon class="cls-2" points="73.89 140.86 122.03 70.43 144.23 70.43 96.32 140.86 73.89 140.86"/><polygon class="cls-2" points="122.03 70.43 170.17 0 192.37 0 144.46 70.43 122.03 70.43"/><path class="cls-1" d="m125.37,24.3h30.49c20.68,0,34.9,11.75,34.9,30.93s-14.23,30.93-34.9,30.93h-30.49V24.3Zm29.6,45.59c8.75,0,14.76-5.21,14.76-14.67s-6.01-14.67-14.76-14.67h-8.75v29.34h8.75Z"/></svg>