<?xml version="1.0" encoding="UTF-8"?><svg id="Layer_2" xmlns="http://www.w3.org/2000/svg" viewBox="0 0 566 191.23"><defs><style>.cls-1{fill:#f43f5e;}.cls-1,.cls-2{stroke-width:0px;}.cls-2{fill:#fff;}</style></defs><polygon class="cls-2" points="356.26 136.99 335.39 191.23 307.58 191.23 343.04 110.1 369.94 110.1 405.4 191.23 377.12 191.23 356.26 136.99"/><path class="cls-2" d="m408.97,110.1h39.99c27.12,0,45.78,15.42,45.78,40.57s-18.66,40.57-45.78,40.57h-39.99v-81.13Zm38.83,59.81c11.48,0,19.36-6.84,19.36-19.24s-7.88-19.24-19.36-19.24h-11.48v38.48h11.48Z"/><path class="cls-2" d="m566,170.6v20.63h-67.46v-81.13h65.95v20.63h-39.06v9.5h34.31v19.7h-34.31v10.66h40.57Z"/><path class="cls-2" d="m286.28,166.2c9.74-4.98,15.3-13.79,15.3-25.5,0-18.78-14.37-30.6-36.97-30.6H104.95v21.21h65.03v59.92h27.35v-59.92h28.22v59.92h27.35v-20.4h7.42l13.79,20.4h29.21l-17.04-25.04Zm-23.41-15.99h-9.97v-19.01h9.97c7.53,0,11.13,3.59,11.13,9.5s-3.59,9.5-11.13,9.5Z"/><path class="cls-1" d="m163.42,191.23l-82.69-121.83c9.74-4.98,15.3-13.79,15.3-25.5,0-18.78-14.37-30.6-36.97-30.6H20v81.13h27.35v-20.4h6.88l79.77,117.19h29.42ZM47.35,34.4h9.97c7.53,0,11.13,3.59,11.13,9.5s-3.59,9.5-11.13,9.5h-9.97v-19.01Z"/><path class="cls-2" d="m212.01,13.3h-39.99v60.5h-44.1v-10.66h34.31v-19.7h-34.31v-9.5h39.06V13.3h-65.95v81.13h110.98c27.12,0,45.78-15.42,45.78-40.57s-18.66-40.57-45.78-40.57Zm-1.16,59.81h-11.48v-38.48h11.48c11.48,0,19.36,6.84,19.36,19.24s-7.88,19.24-19.36,19.24Z"/></svg>