<?xml version="1.0" encoding="utf-8"?>
<!-- Generator: Adobe Illustrator 27.9.0, SVG Export Plug-In . SVG Version: 6.00 Build 0)  -->
<svg version="1.1" id="Layer_1" xmlns="http://www.w3.org/2000/svg" xmlns:xlink="http://www.w3.org/1999/xlink" x="0px" y="0px"
	 viewBox="0 0 127 27" style="enable-background:new 0 0 127 27;" xml:space="preserve">
<style type="text/css">
	.st0{fill-rule:evenodd;clip-rule:evenodd;fill:#A3A3A3;}
</style>
<g>
	<path class="st0" d="M47.8,19.7v0.2h-6.2v-2.4l0,0l0,0v-6.3c0-0.4,0.1-2-1.7-2c0,0-1.9,0-1.9,2.3l0,0v6.2c0.1,1.9,1.2,2,1.2,2v0.2
		H33l0,0h-3.5c-0.1,0-4.5,0.2-4.6-3.9v-2.2c0,0-1.7,0.4-2.2,0.8c0,0-1.4,0.9-0.5,2.4c0,0,0.7,1.2,2.8,0.7l-1.1,2.2h-2.1
		c0,0-4.9,0.1-5.5-3.5c0,0-0.4-2.8,2.9-4c0,0,1.1-0.4,3.3-0.8c0,0,1.9-0.3,2-1.3c0-0.2,0-0.4-0.1-0.6c0,0.1-0.8-2.2-6.1,0.1l1.1-3.3
		c0,0,5-1.5,8.4,0.7c0,0,1.8,1,1.8,4.1l0.1,4.2c0,0.1,0,2.2,2.1,2.3c0,0,0.7,0,1.2,0V8.6c0-0.1,0.1-2-1.2-2.1V6.3L38,6.1v1.6
		c0.3-0.3,1.7-1.6,3.7-1.6c0,0,4.8-0.2,4.8,4.6v6.8C46.5,19.6,47.8,19.7,47.8,19.7L47.8,19.7z M0,0.3V0.1h6.7l4.8,14.1l3.6-11.3
		c0,0,0.7-1.9-1.2-2.7V0h5.4l-6.8,20l-2.8-1.1c0,0-2.3-0.7-3.5-4.1L1.7,2.5C1.7,2.5,1.2,0.6,0,0.3z M120,17.4c0,2.4,1.2,2.2,1.2,2.2
		v0.2h-6.3l0,0l0,0v-8.5v-0.2c0,0.1,0-2.2-2-2.2c0,0-2.3-0.2-2.3,4.1c0,0,0,5,3.9,4.4l-1.4,2.4c0,0-3.1,1.1-5.8-1.7c0,0-2-1.7-2-5.1
		c0,0-0.1-3.2,2-5.2c0,0.1,3.2-3.5,7.5-0.8V2.5c0,0,0.1-2-1.2-2.1V0.3l6.3-0.2L120,17.4L120,17.4z M101.1,7.9c1.4-2.6,4-1.8,4-1.8
		v3.4c-4.2-0.7-4,2.5-4,2.4l0,0v5.5c0,2.3,1.2,2.2,1.2,2.2v0.2H96l0,0h-3.6c-0.1,0-4.5,0.2-4.6-3.9v-2.2c0,0-1.7,0.4-2.3,0.8
		c0,0-1.4,0.9-0.5,2.4c0,0,0.7,1.2,2.8,0.7l-1.1,2.2h-2.1c0,0-4.9,0.1-5.5-3.5c0,0-0.4-2.8,2.9-3.9c0,0,1.1-0.4,3.3-0.8
		c0,0,1.9-0.3,2-1.3c0-0.2,0-0.4-0.1-0.6c0,0.1-0.8-2.2-6.1,0.1l1.1-3.3c0,0,5-1.5,8.4,0.7c0,0,1.8,1,1.8,4.1l0.1,4.2
		c0,0.1,0,2.2,2.1,2.3c0,0,0.8,0,1.2,0v-1.1V8.6c0-0.1,0.1-2-1.2-2.1V6.3l6.2-0.2L101.1,7.9L101.1,7.9z"/>
	<path class="st0" d="M54.9,13.6c1.9,0,1.7-2.6,1.7-2.7c0-2.3-1.7-2.2-1.7-2.2c-1.8,0-1.7,2.3-1.7,2.2C53,13.4,54.8,13.6,54.9,13.6z
		 M69.1,6.1v8.8c0,0,0,1.9,1.7,1.9c0,0,1.8,0.3,1.9-2.4l0,0v-1.6V8.6c0-0.1,0.1-2-1.2-2.1V6.3l6.2-0.2v11.3c0,0-0.1,2.2,1.2,2.2v0.2
		h-6.3v-1.6c-0.3,0.3-1.7,1.6-3.8,1.6c0,0-4.9,0.2-4.9-4.6c0,0,0-5,0-6.8h-3.8c0.1,0.1,0.3,0.4,0.3,0.4c2.1,2.7,0.1,5,0,5
		c-1.4,1.9-5.8,2.4-5.8,2.4h-0.3c-1.5,0.1-1,0.8-1,0.8c0.2,0.5,1.3,0.4,1.3,0.4h2.5c5.1,0,5.6,3.3,5.7,3.3c0.8,4.7-3.9,6.1-8.6,6
		c-4.7,0-6.4-2-6.4-2c-1.2-1.4-0.6-3.3,1.5-3.9c1.6-0.4,3.4,0,3.4,0c-1.4,0.2-1.1,1.6-1.1,1.6c0.5,1.7,2.9,1.7,3,1.7
		c3-0.2,3.1-1.6,3.1-2.4c0-1-0.8-1.5-0.8-1.5c-1.1-0.8-3.2-0.6-4.6-0.6c-2-0.1-2.6-2-2.7-2.6c-0.1-0.6,0-0.8,0.4-1
		c0.6-0.4,2-0.5,1.9-0.5l0,0l0,0c-1.8-0.6-2.8-2-2.8-2c-2.2-3.2,0.4-5.7,0.4-5.7C51,6.4,52.9,6,54.6,6L69.1,6.1L69.1,6.1z M122,2.6
		c0,1.2,1,2.1,2.2,2.1s2.2-1,2.2-2.1s-1-2.1-2.2-2.1C123,0.4,122,1.4,122,2.6L122,2.6z M121.7,2.6c0-1.4,1.1-2.5,2.5-2.5
		s2.5,1.1,2.5,2.5s-1.1,2.5-2.5,2.5C122.8,5.1,121.7,4,121.7,2.6z"/>
	<path class="st0" d="M123.6,2.7V4h-0.4V1.1h1.1c0.5,0,1,0.2,1,0.7c0,0.3-0.2,0.6-0.6,0.7l0,0c0.4,0.1,0.4,0.3,0.4,0.6
		s0.1,0.6,0.2,0.9h-0.4c0-0.2-0.1-0.4-0.1-0.5c0-0.3,0-0.5-0.2-0.7c-0.1-0.1-0.3-0.1-0.4-0.1H123.6L123.6,2.7z M123.6,2.4h0.7
		c0.5,0,0.6-0.2,0.6-0.5c0-0.2-0.1-0.4-0.6-0.5h-0.7V2.4L123.6,2.4z"/>
</g>
</svg>
