<?xml version="1.0" encoding="UTF-8"?><svg id="Layer_1" xmlns="http://www.w3.org/2000/svg" viewBox="0 0 732.28 665.78"><defs><style>.cls-1{fill:#eab308;stroke-width:0px;}</style></defs><g id="Layer_2"><g id="icons_Q2"><path class="cls-1" d="m366.14,99.11l276.67,500H91.14L366.14,99.11M4.47,615.78c-9.21,15.94-3.75,36.33,12.19,45.54,4.91,2.84,10.47,4.37,16.14,4.46h666.67c18.41-.29,33.09-15.45,32.8-33.86-.09-5.67-1.63-11.23-4.46-16.14L394.47,15.78c-9.7-15.65-30.24-20.47-45.89-10.77-4.37,2.71-8.06,6.4-10.77,10.77L4.47,615.78Z"/><path class="cls-1" d="m332.81,265.78v150c0,18.41,14.92,33.33,33.33,33.33s33.33-14.92,33.33-33.33v-150c0-18.41-14.92-33.33-33.33-33.33s-33.33,14.92-33.33,33.33Z"/><circle class="cls-1" cx="366.14" cy="515.78" r="33.33"/></g></g></svg>